{"glyphs":{"0":{"ha":643,"x_min":39,"x_max":604,"o":"m 515 904 l 428 817 l 215 817 l 126 904 l 195 972 l 447 972 l 515 904 m 604 496 l 447 593 l 447 798 l 534 885 l 604 817 l 604 496 m 195 593 l 39 496 l 39 817 l 107 885 l 195 798 l 195 593 m 604 155 l 534 87 l 447 175 l 447 399 l 604 476 l 604 155 m 195 175 l 107 87 l 39 155 l 39 476 l 195 399 l 195 175 m 515 68 l 447 0 l 195 0 l 126 68 l 215 155 l 428 155 l 515 68 z "},"1":{"ha":233,"x_min":52,"x_max":212,"o":"m 209 526 l 52 637 l 52 873 l 139 973 l 209 895 l 209 526 m 212 83 l 142 -5 l 54 109 l 54 402 l 212 503 l 212 83 z "},"2":{"ha":643,"x_min":39,"x_max":604,"o":"m 515 904 l 428 817 l 215 817 l 126 904 l 195 972 l 447 972 l 515 904 m 604 496 l 447 593 l 447 798 l 534 885 l 604 817 l 604 496 m 564 486 l 428 418 l 215 418 l 78 486 l 215 574 l 428 574 l 564 486 m 195 175 l 107 87 l 39 155 l 39 476 l 195 399 l 195 175 m 515 68 l 447 0 l 195 0 l 126 68 l 215 155 l 428 155 l 515 68 z "},"3":{"ha":643,"x_min":77,"x_max":604,"o":"m 515 904 l 428 817 l 215 817 l 126 904 l 195 972 l 447 972 l 515 904 m 604 496 l 447 593 l 447 798 l 534 885 l 604 817 l 604 496 m 564 486 l 428 418 l 215 418 l 78 486 l 215 574 l 428 574 l 564 486 m 604 155 l 534 87 l 447 175 l 447 399 l 604 476 l 604 155 m 515 68 l 447 0 l 195 0 l 126 68 l 215 155 l 428 155 l 515 68 z "},"4":{"ha":643,"x_min":39,"x_max":604,"o":"m 604 496 l 447 593 l 447 798 l 534 885 l 604 817 l 604 496 m 195 593 l 39 496 l 39 817 l 107 885 l 195 798 l 195 593 m 564 486 l 428 418 l 215 418 l 78 486 l 215 574 l 428 574 l 564 486 m 604 155 l 534 87 l 447 175 l 447 399 l 604 476 l 604 155 z "},"5":{"ha":643,"x_min":39,"x_max":604,"o":"m 515 904 l 428 817 l 215 817 l 126 904 l 195 972 l 447 972 l 515 904 m 195 593 l 39 496 l 39 817 l 107 885 l 195 798 l 195 593 m 564 486 l 428 418 l 215 418 l 78 486 l 215 574 l 428 574 l 564 486 m 604 155 l 534 87 l 447 175 l 447 399 l 604 476 l 604 155 m 515 68 l 447 0 l 195 0 l 126 68 l 215 155 l 428 155 l 515 68 z "},"6":{"ha":643,"x_min":39,"x_max":604,"o":"m 515 904 l 428 817 l 215 817 l 126 904 l 195 972 l 447 972 l 515 904 m 195 593 l 39 496 l 39 817 l 107 885 l 195 798 l 195 593 m 564 486 l 428 418 l 215 418 l 78 486 l 215 574 l 428 574 l 564 486 m 604 155 l 534 87 l 447 175 l 447 399 l 604 476 l 604 155 m 195 175 l 107 87 l 39 155 l 39 476 l 195 399 l 195 175 m 515 68 l 447 0 l 195 0 l 126 68 l 215 155 l 428 155 l 515 68 z "},"7":{"ha":643,"x_min":126,"x_max":604,"o":"m 515 904 l 428 817 l 215 817 l 126 904 l 195 972 l 447 972 l 515 904 m 604 496 l 447 593 l 447 798 l 534 885 l 604 817 l 604 496 m 604 155 l 534 87 l 447 175 l 447 399 l 604 476 l 604 155 z "},"8":{"ha":643,"x_min":39,"x_max":604,"o":"m 515 904 l 428 817 l 215 817 l 126 904 l 195 972 l 447 972 l 515 904 m 604 496 l 447 593 l 447 798 l 534 885 l 604 817 l 604 496 m 195 593 l 39 496 l 39 817 l 107 885 l 195 798 l 195 593 m 564 486 l 428 418 l 215 418 l 78 486 l 215 574 l 428 574 l 564 486 m 604 155 l 534 87 l 447 175 l 447 399 l 604 476 l 604 155 m 195 175 l 107 87 l 39 155 l 39 476 l 195 399 l 195 175 m 515 68 l 447 0 l 195 0 l 126 68 l 215 155 l 428 155 l 515 68 z "},"9":{"ha":643,"x_min":39,"x_max":604,"o":"m 515 904 l 428 817 l 215 817 l 126 904 l 195 972 l 447 972 l 515 904 m 604 496 l 447 593 l 447 798 l 534 885 l 604 817 l 604 496 m 195 593 l 39 496 l 39 817 l 107 885 l 195 798 l 195 593 m 564 486 l 428 418 l 215 418 l 78 486 l 215 574 l 428 574 l 564 486 m 604 155 l 534 87 l 447 175 l 447 399 l 604 476 l 604 155 m 515 68 l 447 0 l 195 0 l 126 68 l 215 155 l 428 155 l 515 68 z "}," ":{"ha":233,"x_min":0,"x_max":0,"o":""},"!":{"ha":233,"x_min":39,"x_max":194,"o":"m 195 301 l 39 399 l 39 817 l 195 972 l 195 301 m 195 0 l 39 0 l 39 243 l 195 243 l 195 0 z "},"\"":{"ha":451,"x_min":29,"x_max":420,"o":"m 421 574 l 267 574 l 267 972 l 421 972 l 421 574 m 184 574 l 29 574 l 29 972 l 184 972 l 184 574 z "},"#":{"ha":790,"x_min":64,"x_max":726,"o":"m 726 669 l 713 603 l 558 603 l 509 370 l 663 370 l 650 302 l 494 302 l 433 20 l 367 20 l 427 302 l 286 302 l 225 20 l 160 20 l 218 302 l 64 302 l 78 370 l 233 370 l 282 603 l 126 603 l 140 669 l 297 669 l 357 953 l 424 953 l 364 669 l 505 669 l 564 953 l 631 953 l 571 669 l 726 669 m 490 603 l 350 603 l 300 370 l 441 370 l 490 603 z "},"$":{"ha":642,"x_min":39,"x_max":602,"o":"m 401 1017 l 323 930 l 243 1013 l 243 1088 l 325 1168 l 401 1090 l 401 1017 m 603 972 l 431 817 l 214 817 l 126 904 l 197 972 l 241 972 l 323 896 l 400 972 l 603 972 m 197 595 l 40 497 l 40 815 l 109 889 l 197 799 l 197 595 m 562 486 l 427 418 l 211 418 l 78 488 l 212 574 l 428 574 l 562 486 m 603 158 l 536 85 l 449 175 l 449 401 l 603 476 l 603 158 m 515 66 l 449 0 l 395 0 l 322 72 l 239 0 l 39 0 l 214 155 l 431 155 l 515 66 m 396 -123 l 319 -199 l 236 -111 l 236 -46 l 319 33 l 396 -50 l 396 -123 z "},"%":{"ha":1124,"x_min":19,"x_max":1105,"o":"m 397 901 l 310 817 l 197 817 l 111 901 l 178 972 l 332 972 l 397 901 m 486 659 l 414 591 l 329 676 l 329 796 l 414 885 l 486 815 l 486 659 m 178 677 l 89 590 l 20 657 l 20 815 l 92 885 l 178 796 l 178 677 m 951 972 l 639 463 l 554 618 l 768 972 l 951 972 m 396 570 l 329 505 l 175 505 l 109 570 l 197 657 l 310 657 l 396 570 m 1017 400 l 930 315 l 818 315 l 730 400 l 799 469 l 951 469 l 1017 400 m 1105 157 l 1035 89 l 950 175 l 950 294 l 1036 382 l 1105 314 l 1105 157 m 800 175 l 708 87 l 640 155 l 640 314 l 711 382 l 800 293 l 800 175 m 623 435 l 363 0 l 180 0 l 444 435 l 623 435 m 1015 68 l 950 0 l 798 0 l 729 68 l 818 155 l 930 155 l 1015 68 z "},"&":{"ha":779,"x_min":39,"x_max":798,"o":"m 515 904 l 428 817 l 215 817 l 126 904 l 195 972 l 447 972 l 515 904 m 195 593 l 39 496 l 39 817 l 107 885 l 195 798 l 195 593 m 602 597 l 524 513 l 447 599 l 447 700 l 534 789 l 602 700 l 602 597 m 799 488 l 671 418 l 621 418 l 545 496 l 621 574 l 672 574 l 799 488 m 504 496 l 429 418 l 310 418 l 174 489 l 311 574 l 429 574 l 504 496 m 600 157 l 534 90 l 447 175 l 447 400 l 524 476 l 600 399 l 600 157 m 195 175 l 107 87 l 39 155 l 39 476 l 195 399 l 195 175 m 515 68 l 447 0 l 195 0 l 126 68 l 215 155 l 428 155 l 515 68 z "},"'":{"ha":215,"x_min":29,"x_max":184,"o":"m 184 574 l 29 574 l 29 972 l 184 972 l 184 574 z "},"(":{"ha":389,"x_min":39,"x_max":369,"o":"m 370 972 l 272 817 l 215 817 l 126 904 l 195 972 l 370 972 m 195 593 l 39 496 l 39 817 l 107 885 l 195 798 l 195 593 m 195 175 l 107 87 l 39 155 l 39 476 l 195 399 l 195 175 m 370 0 l 195 0 l 126 68 l 215 155 l 272 155 l 370 0 z "},")":{"ha":389,"x_min":19,"x_max":350,"o":"m 262 904 l 174 817 l 117 817 l 20 972 l 195 972 l 262 904 m 350 496 l 195 574 l 195 798 l 281 885 l 350 817 l 350 496 m 350 155 l 281 87 l 195 175 l 195 379 l 350 476 l 350 155 m 262 68 l 195 0 l 20 0 l 117 155 l 174 155 l 262 68 z "},"*":{"ha":590,"x_min":19,"x_max":570,"o":"m 372 800 l 292 745 l 215 804 l 215 991 l 294 1047 l 372 987 l 372 800 m 275 633 l 110 532 l 20 571 l 28 667 l 207 771 l 275 722 l 275 633 m 571 578 l 496 529 l 309 632 l 309 725 l 378 768 l 558 671 l 571 578 z "},"+":{"ha":646,"x_min":19,"x_max":626,"o":"m 397 586 l 322 505 l 240 587 l 240 720 l 397 789 l 397 586 m 627 564 l 561 408 l 416 408 l 347 486 l 427 564 l 627 564 m 301 488 l 221 408 l 20 408 l 86 564 l 224 564 l 301 488 m 397 253 l 243 184 l 243 389 l 322 467 l 397 389 l 397 253 z "},",":{"ha":215,"x_min":29,"x_max":184,"o":"m 184 -155 l 29 -155 l 29 243 l 184 243 l 184 -155 z "},"-":{"ha":465,"x_min":19,"x_max":447,"o":"m 447 567 l 329 414 l 20 414 l 135 567 l 447 567 z "},".":{"ha":277,"x_min":71,"x_max":226,"o":"m 227 0 l 71 0 l 71 243 l 227 243 l 227 0 z "},"/":{"ha":809,"x_min":19,"x_max":791,"o":"m 791 972 l 478 463 l 392 618 l 607 972 l 791 972 m 461 435 l 201 0 l 20 0 l 282 435 l 461 435 z "},":":{"ha":233,"x_min":51,"x_max":209,"o":"m 207 598 l 51 598 l 51 804 l 207 804 l 207 598 m 210 180 l 54 180 l 54 389 l 210 389 l 210 180 z "},";":{"ha":233,"x_min":39,"x_max":194,"o":"m 195 474 l 39 474 l 39 680 l 195 680 l 195 474 m 195 -155 l 39 -155 l 39 276 l 195 276 l 195 -155 z "},"<":{"ha":426,"x_min":29,"x_max":393,"o":"m 393 810 l 210 501 l 33 501 l 306 972 l 393 972 l 393 810 m 393 0 l 298 0 l 29 471 l 210 471 l 393 153 l 393 0 z "},"=":{"ha":643,"x_min":77,"x_max":564,"o":"m 564 590 l 428 522 l 215 522 l 78 590 l 215 677 l 428 677 l 564 590 m 564 361 l 428 293 l 215 293 l 78 361 l 215 449 l 428 449 l 564 361 z "},">":{"ha":439,"x_min":37,"x_max":401,"o":"m 397 501 l 221 501 l 37 810 l 37 972 l 125 972 l 397 501 m 401 471 l 132 0 l 37 0 l 37 153 l 221 471 l 401 471 z "},"?":{"ha":564,"x_min":0,"x_max":525,"o":"m 437 904 l 350 817 l 136 817 l 0 972 l 370 972 l 437 904 m 525 496 l 370 593 l 370 798 l 457 885 l 525 817 l 525 496 m 486 486 l 350 418 l 136 418 l 136 574 l 350 574 l 486 486 m 292 0 l 136 0 l 136 243 l 292 243 l 292 0 z "},"@":{"ha":1410,"x_min":75,"x_max":1360,"o":"m 787 111 q 689 29 743 60 q 579 -2 634 -2 q 462 33 519 -2 q 369 142 405 68 q 334 302 334 215 q 389 518 334 410 q 526 681 444 627 q 686 735 608 735 q 798 704 745 735 q 890 610 852 673 l 913 715 l 1035 715 l 937 260 q 917 155 917 165 q 931 124 917 137 q 964 111 945 111 q 1059 152 1000 111 q 1181 297 1136 206 q 1226 486 1226 389 q 1168 697 1226 599 q 995 854 1110 795 q 741 913 880 913 q 451 839 583 913 q 248 626 320 765 q 176 329 176 488 q 248 43 176 163 q 457 -135 320 -77 q 760 -192 593 -192 q 1057 -132 937 -192 q 1237 13 1177 -73 l 1360 13 q 1241 -132 1325 -58 q 1041 -249 1157 -206 q 762 -292 925 -292 q 484 -254 611 -292 q 267 -137 357 -215 q 132 41 178 -60 q 75 318 75 170 q 143 633 75 484 q 378 915 226 817 q 747 1013 530 1013 q 1049 944 916 1013 q 1261 739 1183 875 q 1326 484 1326 621 q 1188 134 1326 287 q 918 -3 1065 -3 q 843 12 871 -3 q 800 52 814 26 q 787 111 791 69 m 459 294 q 503 150 459 201 q 604 98 547 98 q 684 121 642 98 q 765 189 726 144 q 827 302 803 233 q 852 440 852 371 q 806 583 852 532 q 694 634 760 634 q 613 612 651 634 q 538 541 574 590 q 481 422 503 492 q 459 294 459 353 z "},"A":{"ha":643,"x_min":39,"x_max":604,"o":"m 583 972 l 428 817 l 215 817 l 58 972 l 583 972 m 604 496 l 447 593 l 447 798 l 604 953 l 604 496 m 195 593 l 39 496 l 39 953 l 195 798 l 195 593 m 564 486 l 428 418 l 215 418 l 78 486 l 215 574 l 428 574 l 564 486 m 604 0 l 447 155 l 447 399 l 604 476 l 604 0 m 195 155 l 39 0 l 39 476 l 195 399 l 195 155 z "},"B":{"ha":643,"x_min":39,"x_max":604,"o":"m 515 904 l 428 817 l 215 817 l 58 972 l 447 972 l 515 904 m 195 593 l 39 496 l 39 953 l 195 798 l 195 593 m 604 496 l 447 593 l 447 798 l 534 885 l 604 817 l 604 496 m 564 486 l 428 418 l 215 418 l 78 486 l 215 574 l 428 574 l 564 486 m 604 155 l 534 87 l 447 175 l 447 399 l 604 476 l 604 155 m 195 175 l 39 20 l 39 476 l 195 399 l 195 175 m 515 68 l 447 0 l 58 0 l 215 155 l 428 155 l 515 68 z "},"C":{"ha":583,"x_min":39,"x_max":583,"o":"m 583 972 l 428 817 l 215 817 l 126 904 l 195 972 l 583 972 m 195 574 l 39 496 l 39 817 l 107 885 l 195 798 l 195 574 m 195 175 l 107 87 l 39 155 l 39 476 l 195 379 l 195 175 m 583 0 l 195 0 l 126 68 l 215 155 l 428 155 l 583 0 z "},"D":{"ha":643,"x_min":39,"x_max":604,"o":"m 515 904 l 428 817 l 215 817 l 58 972 l 447 972 l 515 904 m 195 593 l 39 496 l 39 953 l 195 798 l 195 593 m 604 496 l 447 593 l 447 798 l 534 885 l 604 817 l 604 496 m 604 155 l 534 87 l 447 175 l 447 399 l 604 476 l 604 155 m 195 175 l 39 20 l 39 476 l 195 399 l 195 175 m 515 68 l 447 0 l 58 0 l 215 155 l 428 155 l 515 68 z "},"E":{"ha":583,"x_min":39,"x_max":583,"o":"m 583 972 l 428 817 l 215 817 l 58 972 l 583 972 m 195 593 l 39 496 l 39 953 l 195 798 l 195 593 m 564 486 l 428 418 l 215 418 l 78 486 l 215 574 l 428 574 l 564 486 m 195 175 l 39 20 l 39 476 l 195 399 l 195 175 m 583 0 l 58 0 l 215 155 l 428 155 l 583 0 z "},"F":{"ha":573,"x_min":39,"x_max":583,"o":"m 583 972 l 428 817 l 215 817 l 58 972 l 583 972 m 195 593 l 39 496 l 39 953 l 195 798 l 195 593 m 564 486 l 428 418 l 215 418 l 78 486 l 215 574 l 428 574 l 564 486 m 195 155 l 39 0 l 39 476 l 195 399 l 195 155 z "},"G":{"ha":643,"x_min":39,"x_max":604,"o":"m 515 904 l 428 817 l 215 817 l 126 904 l 195 972 l 447 972 l 515 904 m 195 593 l 39 496 l 39 817 l 107 885 l 195 798 l 195 593 m 564 486 l 428 418 l 330 418 l 195 486 l 330 574 l 428 574 l 564 486 m 604 155 l 534 87 l 447 175 l 447 399 l 604 476 l 604 155 m 195 175 l 107 87 l 39 155 l 39 476 l 195 399 l 195 175 m 515 68 l 447 0 l 195 0 l 126 68 l 215 155 l 428 155 l 515 68 z "},"H":{"ha":643,"x_min":39,"x_max":604,"o":"m 604 496 l 447 593 l 447 817 l 604 972 l 604 496 m 195 593 l 39 496 l 39 972 l 195 817 l 195 593 m 564 486 l 428 418 l 215 418 l 78 486 l 215 574 l 428 574 l 564 486 m 604 0 l 447 155 l 447 399 l 604 476 l 604 0 m 195 155 l 39 0 l 39 476 l 195 399 l 195 155 z "},"I":{"ha":233,"x_min":39,"x_max":194,"o":"m 195 496 l 39 593 l 39 817 l 195 972 l 195 496 m 195 0 l 39 155 l 39 399 l 195 476 l 195 0 z "},"J":{"ha":643,"x_min":39,"x_max":604,"o":"m 604 496 l 447 593 l 447 817 l 604 972 l 604 496 m 604 20 l 447 175 l 447 399 l 604 476 l 604 20 m 195 175 l 39 20 l 39 476 l 195 399 l 195 175 m 583 0 l 58 0 l 215 155 l 428 155 l 583 0 z "},"K":{"ha":643,"x_min":39,"x_max":604,"o":"m 604 867 l 446 604 l 267 603 l 492 972 l 604 972 l 604 867 m 195 593 l 39 496 l 39 972 l 195 817 l 195 593 m 564 486 l 428 418 l 215 418 l 78 486 l 215 574 l 428 574 l 564 486 m 604 0 l 447 155 l 447 399 l 604 476 l 604 0 m 195 155 l 39 0 l 39 476 l 195 399 l 195 155 z "},"L":{"ha":643,"x_min":39,"x_max":604,"o":"m 195 593 l 39 496 l 39 972 l 195 817 l 195 593 m 604 20 l 447 175 l 447 399 l 604 476 l 604 20 m 195 175 l 39 20 l 39 476 l 195 399 l 195 175 m 583 0 l 58 0 l 215 155 l 428 155 l 583 0 z "},"M":{"ha":1050,"x_min":39,"x_max":1010,"o":"m 993 972 l 836 817 l 619 817 l 525 914 l 429 817 l 212 817 l 58 972 l 993 972 m 195 593 l 39 496 l 39 953 l 195 798 l 195 593 m 1011 496 l 856 593 l 856 798 l 1011 951 l 1011 496 m 603 554 l 525 496 l 447 554 l 447 798 l 524 876 l 603 798 l 603 554 m 1011 0 l 856 155 l 856 399 l 1011 476 l 1011 0 m 604 155 l 525 0 l 447 155 l 447 399 l 525 476 l 604 399 l 604 155 m 195 155 l 39 0 l 39 476 l 195 399 l 195 155 z "},"N":{"ha":643,"x_min":39,"x_max":604,"o":"m 515 904 l 428 817 l 215 817 l 126 904 l 195 972 l 447 972 l 515 904 m 604 496 l 447 593 l 447 798 l 534 885 l 604 817 l 604 496 m 195 593 l 39 496 l 39 817 l 107 885 l 195 798 l 195 593 m 604 0 l 447 175 l 447 399 l 604 476 l 604 0 m 195 136 l 39 0 l 39 476 l 195 399 l 195 136 z "},"O":{"ha":643,"x_min":39,"x_max":604,"o":"m 515 904 l 428 817 l 215 817 l 126 904 l 195 972 l 447 972 l 515 904 m 604 496 l 447 593 l 447 798 l 534 885 l 604 817 l 604 496 m 195 593 l 39 496 l 39 817 l 107 885 l 195 798 l 195 593 m 604 155 l 534 87 l 447 175 l 447 399 l 604 476 l 604 155 m 195 175 l 107 87 l 39 155 l 39 476 l 195 399 l 195 175 m 515 68 l 447 0 l 195 0 l 126 68 l 215 155 l 428 155 l 515 68 z "},"P":{"ha":643,"x_min":39,"x_max":604,"o":"m 515 904 l 428 817 l 215 817 l 58 972 l 447 972 l 515 904 m 195 593 l 39 496 l 39 953 l 195 798 l 195 593 m 604 496 l 447 593 l 447 798 l 534 885 l 604 817 l 604 496 m 564 486 l 428 418 l 215 418 l 78 486 l 215 574 l 428 574 l 564 486 m 195 155 l 39 0 l 39 476 l 195 399 l 195 155 z "},"Q":{"ha":644,"x_min":39,"x_max":605,"o":"m 515 904 l 428 817 l 215 817 l 126 904 l 195 972 l 447 972 l 515 904 m 604 496 l 447 593 l 447 798 l 534 885 l 604 817 l 604 496 m 195 593 l 39 496 l 39 817 l 107 885 l 195 798 l 195 593 m 604 200 l 534 131 l 447 218 l 447 399 l 604 476 l 604 200 m 195 171 l 107 87 l 39 155 l 39 476 l 195 399 l 195 171 m 368 0 l 195 0 l 123 71 l 216 154 l 368 0 m 606 -199 l 252 155 l 472 155 l 606 24 l 606 -199 z "},"R":{"ha":643,"x_min":39,"x_max":682,"o":"m 515 904 l 428 817 l 215 817 l 58 972 l 447 972 l 515 904 m 195 593 l 39 496 l 39 953 l 195 798 l 195 593 m 604 496 l 447 593 l 447 798 l 534 885 l 604 817 l 604 496 m 564 486 l 428 418 l 215 418 l 78 486 l 215 574 l 428 574 l 564 486 m 195 155 l 39 0 l 39 476 l 195 399 l 195 155 m 682 0 l 454 154 l 354 390 l 433 390 l 501 422 l 682 0 z "},"S":{"ha":643,"x_min":39,"x_max":604,"o":"m 604 972 l 428 817 l 215 817 l 126 904 l 195 972 l 604 972 m 195 593 l 39 496 l 39 817 l 107 885 l 195 798 l 195 593 m 564 486 l 428 418 l 215 418 l 78 486 l 215 574 l 428 574 l 564 486 m 604 155 l 534 87 l 447 175 l 447 399 l 604 476 l 604 155 m 515 68 l 447 0 l 39 0 l 215 155 l 428 155 l 515 68 z "},"T":{"ha":526,"x_min":-19,"x_max":545,"o":"m 546 972 l 437 817 l 361 817 l 267 914 l 167 817 l 87 817 l -20 972 l 546 972 m 342 582 l 265 496 l 183 582 l 183 793 l 265 882 l 342 794 l 342 582 m 342 86 l 264 0 l 180 86 l 180 390 l 264 478 l 342 390 l 342 86 z "},"U":{"ha":643,"x_min":39,"x_max":604,"o":"m 604 496 l 447 593 l 447 817 l 604 972 l 604 496 m 195 593 l 39 496 l 39 972 l 195 817 l 195 593 m 604 155 l 534 87 l 447 175 l 447 399 l 604 476 l 604 155 m 195 175 l 107 87 l 39 155 l 39 476 l 195 399 l 195 175 m 515 68 l 447 0 l 195 0 l 126 68 l 215 155 l 428 155 l 515 68 z "},"V":{"ha":643,"x_min":39,"x_max":604,"o":"m 604 496 l 447 593 l 447 856 l 604 972 l 604 496 m 195 593 l 39 496 l 39 972 l 195 856 l 195 593 m 604 478 l 428 0 l 335 191 l 412 408 l 604 478 m 315 187 l 218 0 l 39 478 l 233 407 l 315 187 m 397 0 l 244 0 l 323 154 l 397 0 z "},"W":{"ha":1051,"x_min":39,"x_max":1012,"o":"m 1011 496 l 856 574 l 856 817 l 1011 972 l 1011 496 m 604 574 l 525 496 l 447 574 l 447 817 l 525 972 l 604 817 l 604 574 m 195 574 l 39 496 l 39 972 l 195 817 l 195 574 m 604 175 l 526 96 l 449 175 l 449 418 l 525 476 l 604 418 l 604 175 m 1013 157 l 943 90 l 852 179 l 852 380 l 1013 478 l 1013 157 m 195 178 l 106 90 l 39 157 l 39 479 l 195 379 l 195 178 m 925 72 l 854 0 l 192 0 l 123 71 l 211 155 l 431 155 l 525 61 l 619 155 l 836 155 l 925 72 z "},"X":{"ha":606,"x_min":19,"x_max":589,"o":"m 589 810 l 406 501 l 318 501 l 318 656 l 501 972 l 589 972 l 589 810 m 290 501 l 204 501 l 20 818 l 20 972 l 114 972 l 290 656 l 290 501 m 589 0 l 494 0 l 317 311 l 317 471 l 406 471 l 589 153 l 589 0 m 290 311 l 110 0 l 20 0 l 20 160 l 200 471 l 290 471 l 290 311 z "},"Y":{"ha":643,"x_min":39,"x_max":604,"o":"m 604 496 l 447 593 l 447 817 l 604 972 l 604 496 m 195 593 l 39 496 l 39 972 l 195 817 l 195 593 m 564 486 l 428 418 l 215 418 l 78 486 l 215 574 l 428 574 l 564 486 m 401 87 l 321 0 l 241 87 l 241 389 l 401 389 l 401 87 z "},"Z":{"ha":605,"x_min":19,"x_max":586,"o":"m 468 972 l 376 817 l 175 817 l 21 972 l 468 972 m 586 812 l 378 457 l 281 603 l 500 972 l 586 972 l 586 812 m 368 435 l 143 0 l 20 0 l 20 147 l 195 447 l 368 435 m 585 0 l 170 0 l 252 155 l 428 155 l 585 0 z "},"[":{"ha":398,"x_min":39,"x_max":389,"o":"m 389 972 l 233 817 l 215 817 l 58 972 l 389 972 m 195 593 l 39 496 l 39 953 l 195 798 l 195 593 m 195 175 l 39 20 l 39 476 l 195 399 l 195 175 m 389 0 l 58 0 l 215 155 l 233 155 l 389 0 z "},"\\":{"ha":809,"x_min":14,"x_max":786,"o":"m 414 618 l 328 463 l 14 972 l 199 972 l 414 618 m 786 0 l 604 0 l 345 435 l 524 435 l 786 0 z "},"]":{"ha":398,"x_min":9,"x_max":359,"o":"m 340 972 l 184 817 l 165 817 l 9 972 l 340 972 m 359 496 l 204 574 l 204 798 l 359 953 l 359 496 m 359 20 l 204 175 l 204 379 l 359 476 l 359 20 m 340 0 l 9 0 l 165 155 l 184 155 l 340 0 z "},"^":{"ha":644,"x_min":39,"x_max":604,"o":"m 515 904 l 428 817 l 215 817 l 126 904 l 195 972 l 447 972 l 515 904 m 604 496 l 447 593 l 447 798 l 534 885 l 604 817 l 604 496 m 195 593 l 39 496 l 39 817 l 107 885 l 195 798 l 195 593 z "},"_":{"ha":491,"x_min":-3,"x_max":491,"o":"m 492 -278 l 0 -278 l -3 -221 l 490 -221 l 492 -278 z "},"`":{"ha":643,"x_min":77,"x_max":564,"o":"m 564 1111 l 428 1043 l 215 1043 l 78 1111 l 215 1198 l 428 1198 l 564 1111 z "},"a":{"ha":643,"x_min":39,"x_max":604,"o":"m 583 972 l 428 817 l 215 817 l 58 972 l 583 972 m 604 496 l 447 593 l 447 798 l 604 953 l 604 496 m 195 593 l 39 496 l 39 953 l 195 798 l 195 593 m 564 486 l 428 418 l 215 418 l 78 486 l 215 574 l 428 574 l 564 486 m 604 0 l 447 155 l 447 399 l 604 476 l 604 0 m 195 155 l 39 0 l 39 476 l 195 399 l 195 155 z "},"b":{"ha":643,"x_min":39,"x_max":604,"o":"m 515 904 l 428 817 l 215 817 l 58 972 l 447 972 l 515 904 m 195 593 l 39 496 l 39 953 l 195 798 l 195 593 m 604 496 l 447 593 l 447 798 l 534 885 l 604 817 l 604 496 m 564 486 l 428 418 l 215 418 l 78 486 l 215 574 l 428 574 l 564 486 m 604 155 l 534 87 l 447 175 l 447 399 l 604 476 l 604 155 m 195 175 l 39 20 l 39 476 l 195 399 l 195 175 m 515 68 l 447 0 l 58 0 l 215 155 l 428 155 l 515 68 z "},"c":{"ha":583,"x_min":39,"x_max":583,"o":"m 583 972 l 428 817 l 215 817 l 126 904 l 195 972 l 583 972 m 195 574 l 39 496 l 39 817 l 107 885 l 195 798 l 195 574 m 195 175 l 107 87 l 39 155 l 39 476 l 195 379 l 195 175 m 583 0 l 195 0 l 126 68 l 215 155 l 428 155 l 583 0 z "},"d":{"ha":643,"x_min":39,"x_max":604,"o":"m 515 904 l 428 817 l 215 817 l 58 972 l 447 972 l 515 904 m 195 593 l 39 496 l 39 953 l 195 798 l 195 593 m 604 496 l 447 593 l 447 798 l 534 885 l 604 817 l 604 496 m 604 155 l 534 87 l 447 175 l 447 399 l 604 476 l 604 155 m 195 175 l 39 20 l 39 476 l 195 399 l 195 175 m 515 68 l 447 0 l 58 0 l 215 155 l 428 155 l 515 68 z "},"e":{"ha":583,"x_min":39,"x_max":583,"o":"m 583 972 l 428 817 l 215 817 l 58 972 l 583 972 m 195 593 l 39 496 l 39 953 l 195 798 l 195 593 m 564 486 l 428 418 l 215 418 l 78 486 l 215 574 l 428 574 l 564 486 m 195 175 l 39 20 l 39 476 l 195 399 l 195 175 m 583 0 l 58 0 l 215 155 l 428 155 l 583 0 z "},"f":{"ha":573,"x_min":39,"x_max":583,"o":"m 583 972 l 428 817 l 215 817 l 58 972 l 583 972 m 195 593 l 39 496 l 39 953 l 195 798 l 195 593 m 564 486 l 428 418 l 215 418 l 78 486 l 215 574 l 428 574 l 564 486 m 195 155 l 39 0 l 39 476 l 195 399 l 195 155 z "},"g":{"ha":643,"x_min":39,"x_max":604,"o":"m 515 904 l 428 817 l 215 817 l 126 904 l 195 972 l 447 972 l 515 904 m 195 593 l 39 496 l 39 817 l 107 885 l 195 798 l 195 593 m 564 486 l 428 418 l 330 418 l 195 486 l 330 574 l 428 574 l 564 486 m 604 155 l 534 87 l 447 175 l 447 399 l 604 476 l 604 155 m 195 175 l 107 87 l 39 155 l 39 476 l 195 399 l 195 175 m 515 68 l 447 0 l 195 0 l 126 68 l 215 155 l 428 155 l 515 68 z "},"h":{"ha":643,"x_min":39,"x_max":604,"o":"m 604 496 l 447 593 l 447 817 l 604 972 l 604 496 m 195 593 l 39 496 l 39 972 l 195 817 l 195 593 m 564 486 l 428 418 l 215 418 l 78 486 l 215 574 l 428 574 l 564 486 m 604 0 l 447 155 l 447 399 l 604 476 l 604 0 m 195 155 l 39 0 l 39 476 l 195 399 l 195 155 z "},"i":{"ha":233,"x_min":39,"x_max":194,"o":"m 195 496 l 39 593 l 39 817 l 195 972 l 195 496 m 195 0 l 39 155 l 39 399 l 195 476 l 195 0 z "},"j":{"ha":643,"x_min":39,"x_max":604,"o":"m 604 496 l 447 593 l 447 817 l 604 972 l 604 496 m 604 20 l 447 175 l 447 399 l 604 476 l 604 20 m 195 175 l 39 20 l 39 476 l 195 399 l 195 175 m 583 0 l 58 0 l 215 155 l 428 155 l 583 0 z "},"k":{"ha":643,"x_min":39,"x_max":604,"o":"m 604 867 l 446 604 l 267 603 l 492 972 l 604 972 l 604 867 m 195 593 l 39 496 l 39 972 l 195 817 l 195 593 m 564 486 l 428 418 l 215 418 l 78 486 l 215 574 l 428 574 l 564 486 m 604 0 l 447 155 l 447 399 l 604 476 l 604 0 m 195 155 l 39 0 l 39 476 l 195 399 l 195 155 z "},"l":{"ha":643,"x_min":39,"x_max":604,"o":"m 195 593 l 39 496 l 39 972 l 195 817 l 195 593 m 604 20 l 447 175 l 447 399 l 604 476 l 604 20 m 195 175 l 39 20 l 39 476 l 195 399 l 195 175 m 583 0 l 58 0 l 215 155 l 428 155 l 583 0 z "},"m":{"ha":1050,"x_min":39,"x_max":1010,"o":"m 993 972 l 836 817 l 619 817 l 525 914 l 429 817 l 212 817 l 58 972 l 993 972 m 195 593 l 39 496 l 39 953 l 195 798 l 195 593 m 1011 496 l 856 593 l 856 798 l 1011 951 l 1011 496 m 603 554 l 525 496 l 447 554 l 447 798 l 524 876 l 603 798 l 603 554 m 1011 0 l 856 155 l 856 399 l 1011 476 l 1011 0 m 604 155 l 525 0 l 447 155 l 447 399 l 525 476 l 604 399 l 604 155 m 195 155 l 39 0 l 39 476 l 195 399 l 195 155 z "},"n":{"ha":643,"x_min":39,"x_max":604,"o":"m 515 904 l 428 817 l 215 817 l 126 904 l 195 972 l 447 972 l 515 904 m 604 496 l 447 593 l 447 798 l 534 885 l 604 817 l 604 496 m 195 593 l 39 496 l 39 817 l 107 885 l 195 798 l 195 593 m 604 0 l 447 175 l 447 399 l 604 476 l 604 0 m 195 136 l 39 0 l 39 476 l 195 399 l 195 136 z "},"o":{"ha":643,"x_min":39,"x_max":604,"o":"m 515 904 l 428 817 l 215 817 l 126 904 l 195 972 l 447 972 l 515 904 m 604 496 l 447 593 l 447 798 l 534 885 l 604 817 l 604 496 m 195 593 l 39 496 l 39 817 l 107 885 l 195 798 l 195 593 m 604 155 l 534 87 l 447 175 l 447 399 l 604 476 l 604 155 m 195 175 l 107 87 l 39 155 l 39 476 l 195 399 l 195 175 m 515 68 l 447 0 l 195 0 l 126 68 l 215 155 l 428 155 l 515 68 z "},"p":{"ha":643,"x_min":39,"x_max":604,"o":"m 515 904 l 428 817 l 215 817 l 58 972 l 447 972 l 515 904 m 195 593 l 39 496 l 39 953 l 195 798 l 195 593 m 604 496 l 447 593 l 447 798 l 534 885 l 604 817 l 604 496 m 564 486 l 428 418 l 215 418 l 78 486 l 215 574 l 428 574 l 564 486 m 195 155 l 39 0 l 39 476 l 195 399 l 195 155 z "},"q":{"ha":644,"x_min":39,"x_max":605,"o":"m 515 904 l 428 817 l 215 817 l 126 904 l 195 972 l 447 972 l 515 904 m 604 496 l 447 593 l 447 798 l 534 885 l 604 817 l 604 496 m 195 593 l 39 496 l 39 817 l 107 885 l 195 798 l 195 593 m 604 200 l 534 131 l 447 218 l 447 399 l 604 476 l 604 200 m 195 171 l 107 87 l 39 155 l 39 476 l 195 399 l 195 171 m 368 0 l 195 0 l 123 71 l 216 154 l 368 0 m 606 -199 l 252 155 l 472 155 l 606 24 l 606 -199 z "},"r":{"ha":643,"x_min":39,"x_max":682,"o":"m 515 904 l 428 817 l 215 817 l 58 972 l 447 972 l 515 904 m 195 593 l 39 496 l 39 953 l 195 798 l 195 593 m 604 496 l 447 593 l 447 798 l 534 885 l 604 817 l 604 496 m 564 486 l 428 418 l 215 418 l 78 486 l 215 574 l 428 574 l 564 486 m 195 155 l 39 0 l 39 476 l 195 399 l 195 155 m 682 0 l 454 154 l 354 390 l 433 390 l 501 422 l 682 0 z "},"s":{"ha":643,"x_min":39,"x_max":604,"o":"m 604 972 l 428 817 l 215 817 l 126 904 l 195 972 l 604 972 m 195 593 l 39 496 l 39 817 l 107 885 l 195 798 l 195 593 m 564 486 l 428 418 l 215 418 l 78 486 l 215 574 l 428 574 l 564 486 m 604 155 l 534 87 l 447 175 l 447 399 l 604 476 l 604 155 m 515 68 l 447 0 l 39 0 l 215 155 l 428 155 l 515 68 z "},"t":{"ha":526,"x_min":-19,"x_max":545,"o":"m 546 972 l 437 817 l 361 817 l 267 914 l 167 817 l 87 817 l -20 972 l 546 972 m 342 582 l 265 496 l 183 582 l 183 793 l 265 882 l 342 794 l 342 582 m 342 86 l 264 0 l 180 86 l 180 390 l 264 478 l 342 390 l 342 86 z "},"u":{"ha":643,"x_min":39,"x_max":604,"o":"m 604 496 l 447 593 l 447 817 l 604 972 l 604 496 m 195 593 l 39 496 l 39 972 l 195 817 l 195 593 m 604 155 l 534 87 l 447 175 l 447 399 l 604 476 l 604 155 m 195 175 l 107 87 l 39 155 l 39 476 l 195 399 l 195 175 m 515 68 l 447 0 l 195 0 l 126 68 l 215 155 l 428 155 l 515 68 z "},"v":{"ha":643,"x_min":39,"x_max":604,"o":"m 604 496 l 447 593 l 447 856 l 604 972 l 604 496 m 195 593 l 39 496 l 39 972 l 195 856 l 195 593 m 604 478 l 428 0 l 335 191 l 412 408 l 604 478 m 315 187 l 218 0 l 39 478 l 233 407 l 315 187 m 397 0 l 244 0 l 323 154 l 397 0 z "},"w":{"ha":1051,"x_min":39,"x_max":1012,"o":"m 1011 496 l 856 574 l 856 817 l 1011 972 l 1011 496 m 604 574 l 525 496 l 447 574 l 447 817 l 525 972 l 604 817 l 604 574 m 195 574 l 39 496 l 39 972 l 195 817 l 195 574 m 604 175 l 526 96 l 449 175 l 449 418 l 525 476 l 604 418 l 604 175 m 1013 157 l 943 90 l 852 179 l 852 380 l 1013 478 l 1013 157 m 195 178 l 106 90 l 39 157 l 39 479 l 195 379 l 195 178 m 925 72 l 854 0 l 192 0 l 123 71 l 211 155 l 431 155 l 525 61 l 619 155 l 836 155 l 925 72 z "},"x":{"ha":606,"x_min":19,"x_max":589,"o":"m 589 810 l 406 501 l 318 501 l 318 656 l 501 972 l 589 972 l 589 810 m 290 501 l 204 501 l 20 818 l 20 972 l 114 972 l 290 656 l 290 501 m 589 0 l 494 0 l 317 311 l 317 471 l 406 471 l 589 153 l 589 0 m 290 311 l 110 0 l 20 0 l 20 160 l 200 471 l 290 471 l 290 311 z "},"y":{"ha":643,"x_min":39,"x_max":604,"o":"m 604 496 l 447 593 l 447 817 l 604 972 l 604 496 m 195 593 l 39 496 l 39 972 l 195 817 l 195 593 m 564 486 l 428 418 l 215 418 l 78 486 l 215 574 l 428 574 l 564 486 m 401 87 l 321 0 l 241 87 l 241 389 l 401 389 l 401 87 z "},"z":{"ha":605,"x_min":19,"x_max":586,"o":"m 468 972 l 376 817 l 175 817 l 21 972 l 468 972 m 586 812 l 378 457 l 281 603 l 500 972 l 586 972 l 586 812 m 368 435 l 143 0 l 20 0 l 20 147 l 195 447 l 368 435 m 585 0 l 170 0 l 252 155 l 428 155 l 585 0 z "},"{":{"ha":389,"x_min":39,"x_max":369,"o":"m 370 972 l 272 817 l 215 817 l 126 904 l 195 972 l 370 972 m 195 593 l 39 496 l 39 817 l 107 885 l 195 798 l 195 593 m 195 175 l 107 87 l 39 155 l 39 476 l 195 399 l 195 175 m 370 0 l 195 0 l 126 68 l 215 155 l 272 155 l 370 0 z "},"|":{"ha":233,"x_min":39,"x_max":194,"o":"m 195 593 l 39 496 l 39 972 l 195 817 l 195 593 m 195 155 l 39 0 l 39 476 l 195 399 l 195 155 z "},"}":{"ha":389,"x_min":19,"x_max":350,"o":"m 262 904 l 174 817 l 117 817 l 20 972 l 195 972 l 262 904 m 350 496 l 195 574 l 195 798 l 281 885 l 350 817 l 350 496 m 350 155 l 281 87 l 195 175 l 195 379 l 350 476 l 350 155 m 262 68 l 195 0 l 20 0 l 117 155 l 174 155 l 262 68 z "},"~":{"ha":802,"x_min":23,"x_max":770,"o":"m 771 653 l 371 653 l 528 808 l 615 808 l 771 653 m 416 806 l 261 650 l 180 650 l 24 806 l 416 806 z "},"Ä":{"ha":643,"x_min":39,"x_max":604,"o":"m 583 972 l 428 817 l 215 817 l 58 972 l 583 972 m 604 496 l 447 593 l 447 798 l 604 953 l 604 496 m 195 593 l 39 496 l 39 953 l 195 798 l 195 593 m 564 486 l 428 418 l 215 418 l 78 486 l 215 574 l 428 574 l 564 486 m 604 0 l 447 155 l 447 399 l 604 476 l 604 0 m 195 155 l 39 0 l 39 476 l 195 399 l 195 155 m 557 1111 l 443 1043 l 336 1111 l 443 1198 l 557 1111 m 298 1111 l 184 1043 l 78 1111 l 184 1198 l 298 1111 z "},"Å":{"ha":643,"x_min":39,"x_max":604,"o":"m 583 972 l 428 817 l 215 817 l 58 972 l 583 972 m 604 496 l 447 593 l 447 798 l 604 953 l 604 496 m 195 593 l 39 496 l 39 953 l 195 798 l 195 593 m 564 486 l 428 418 l 215 418 l 78 486 l 215 574 l 428 574 l 564 486 m 604 0 l 447 155 l 447 399 l 604 476 l 604 0 m 195 155 l 39 0 l 39 476 l 195 399 l 195 155 m 489 1111 l 353 1043 l 256 1043 l 119 1111 l 256 1198 l 353 1198 l 489 1111 z "},"Ç":{"ha":583,"x_min":39,"x_max":583,"o":"m 399 -201 l 301 -109 l 399 -12 l 399 -201 m 583 972 l 428 817 l 215 817 l 126 904 l 195 972 l 583 972 m 195 574 l 39 496 l 39 817 l 107 885 l 195 798 l 195 574 m 195 175 l 107 87 l 39 155 l 39 476 l 195 379 l 195 175 m 583 0 l 195 0 l 126 68 l 215 155 l 428 155 l 583 0 z "},"É":{"ha":583,"x_min":39,"x_max":583,"o":"m 583 972 l 428 817 l 215 817 l 58 972 l 583 972 m 195 593 l 39 496 l 39 953 l 195 798 l 195 593 m 564 486 l 428 418 l 215 418 l 78 486 l 215 574 l 428 574 l 564 486 m 195 175 l 39 20 l 39 476 l 195 399 l 195 175 m 583 0 l 58 0 l 215 155 l 428 155 l 583 0 m 543 1111 l 407 1043 l 195 1043 l 57 1111 l 195 1198 l 407 1198 l 543 1111 z "},"Ñ":{"ha":643,"x_min":39,"x_max":604,"o":"m 515 904 l 428 817 l 215 817 l 126 904 l 195 972 l 447 972 l 515 904 m 604 496 l 447 593 l 447 798 l 534 885 l 604 817 l 604 496 m 195 593 l 39 496 l 39 817 l 107 885 l 195 798 l 195 593 m 604 0 l 447 175 l 447 399 l 604 476 l 604 0 m 195 136 l 39 0 l 39 476 l 195 399 l 195 136 m 564 1111 l 428 1043 l 215 1043 l 78 1111 l 215 1198 l 428 1198 l 564 1111 z "},"Ö":{"ha":643,"x_min":39,"x_max":604,"o":"m 515 904 l 428 817 l 215 817 l 126 904 l 195 972 l 447 972 l 515 904 m 604 496 l 447 593 l 447 798 l 534 885 l 604 817 l 604 496 m 195 593 l 39 496 l 39 817 l 107 885 l 195 798 l 195 593 m 604 155 l 534 87 l 447 175 l 447 399 l 604 476 l 604 155 m 195 175 l 107 87 l 39 155 l 39 476 l 195 399 l 195 175 m 515 68 l 447 0 l 195 0 l 126 68 l 215 155 l 428 155 l 515 68 m 557 1111 l 443 1043 l 336 1111 l 443 1198 l 557 1111 m 298 1111 l 184 1043 l 78 1111 l 184 1198 l 298 1111 z "},"Ü":{"ha":643,"x_min":39,"x_max":604,"o":"m 604 496 l 447 593 l 447 817 l 604 972 l 604 496 m 195 593 l 39 496 l 39 972 l 195 817 l 195 593 m 604 155 l 534 87 l 447 175 l 447 399 l 604 476 l 604 155 m 195 175 l 107 87 l 39 155 l 39 476 l 195 399 l 195 175 m 515 68 l 447 0 l 195 0 l 126 68 l 215 155 l 428 155 l 515 68 m 557 1111 l 443 1043 l 336 1111 l 443 1198 l 557 1111 m 298 1111 l 184 1043 l 78 1111 l 184 1198 l 298 1111 z "},"á":{"ha":643,"x_min":39,"x_max":604,"o":"m 583 972 l 428 817 l 215 817 l 58 972 l 583 972 m 604 496 l 447 593 l 447 798 l 604 953 l 604 496 m 195 593 l 39 496 l 39 953 l 195 798 l 195 593 m 564 486 l 428 418 l 215 418 l 78 486 l 215 574 l 428 574 l 564 486 m 604 0 l 447 155 l 447 399 l 604 476 l 604 0 m 195 155 l 39 0 l 39 476 l 195 399 l 195 155 m 559 1111 l 424 1043 l 211 1043 l 74 1111 l 211 1198 l 424 1198 l 559 1111 z "},"à":{"ha":643,"x_min":39,"x_max":604,"o":"m 583 972 l 428 817 l 215 817 l 58 972 l 583 972 m 604 496 l 447 593 l 447 798 l 604 953 l 604 496 m 195 593 l 39 496 l 39 953 l 195 798 l 195 593 m 564 486 l 428 418 l 215 418 l 78 486 l 215 574 l 428 574 l 564 486 m 604 0 l 447 155 l 447 399 l 604 476 l 604 0 m 195 155 l 39 0 l 39 476 l 195 399 l 195 155 m 564 1111 l 428 1043 l 215 1043 l 78 1111 l 215 1198 l 428 1198 l 564 1111 z "},"â":{"ha":643,"x_min":39,"x_max":604,"o":"m 583 972 l 428 817 l 215 817 l 58 972 l 583 972 m 604 496 l 447 593 l 447 798 l 604 953 l 604 496 m 195 593 l 39 496 l 39 953 l 195 798 l 195 593 m 564 486 l 428 418 l 215 418 l 78 486 l 215 574 l 428 574 l 564 486 m 604 0 l 447 155 l 447 399 l 604 476 l 604 0 m 195 155 l 39 0 l 39 476 l 195 399 l 195 155 m 564 1111 l 428 1043 l 215 1043 l 78 1111 l 215 1198 l 428 1198 l 564 1111 z "},"ä":{"ha":643,"x_min":39,"x_max":604,"o":"m 583 972 l 428 817 l 215 817 l 58 972 l 583 972 m 604 496 l 447 593 l 447 798 l 604 953 l 604 496 m 195 593 l 39 496 l 39 953 l 195 798 l 195 593 m 564 486 l 428 418 l 215 418 l 78 486 l 215 574 l 428 574 l 564 486 m 604 0 l 447 155 l 447 399 l 604 476 l 604 0 m 195 155 l 39 0 l 39 476 l 195 399 l 195 155 m 557 1111 l 443 1043 l 336 1111 l 443 1198 l 557 1111 m 298 1111 l 184 1043 l 78 1111 l 184 1198 l 298 1111 z "},"ã":{"ha":643,"x_min":39,"x_max":604,"o":"m 583 972 l 428 817 l 215 817 l 58 972 l 583 972 m 604 496 l 447 593 l 447 798 l 604 953 l 604 496 m 195 593 l 39 496 l 39 953 l 195 798 l 195 593 m 564 486 l 428 418 l 215 418 l 78 486 l 215 574 l 428 574 l 564 486 m 604 0 l 447 155 l 447 399 l 604 476 l 604 0 m 195 155 l 39 0 l 39 476 l 195 399 l 195 155 m 564 1111 l 428 1043 l 215 1043 l 78 1111 l 215 1198 l 428 1198 l 564 1111 z "},"å":{"ha":643,"x_min":39,"x_max":604,"o":"m 583 972 l 428 817 l 215 817 l 58 972 l 583 972 m 604 496 l 447 593 l 447 798 l 604 953 l 604 496 m 195 593 l 39 496 l 39 953 l 195 798 l 195 593 m 564 486 l 428 418 l 215 418 l 78 486 l 215 574 l 428 574 l 564 486 m 604 0 l 447 155 l 447 399 l 604 476 l 604 0 m 195 155 l 39 0 l 39 476 l 195 399 l 195 155 m 489 1111 l 353 1043 l 256 1043 l 119 1111 l 256 1198 l 353 1198 l 489 1111 z "},"ç":{"ha":583,"x_min":39,"x_max":583,"o":"m 399 -201 l 301 -109 l 399 -12 l 399 -201 m 583 972 l 428 817 l 215 817 l 126 904 l 195 972 l 583 972 m 195 574 l 39 496 l 39 817 l 107 885 l 195 798 l 195 574 m 195 175 l 107 87 l 39 155 l 39 476 l 195 379 l 195 175 m 583 0 l 195 0 l 126 68 l 215 155 l 428 155 l 583 0 z "},"é":{"ha":583,"x_min":39,"x_max":583,"o":"m 583 972 l 428 817 l 215 817 l 58 972 l 583 972 m 195 593 l 39 496 l 39 953 l 195 798 l 195 593 m 564 486 l 428 418 l 215 418 l 78 486 l 215 574 l 428 574 l 564 486 m 195 175 l 39 20 l 39 476 l 195 399 l 195 175 m 583 0 l 58 0 l 215 155 l 428 155 l 583 0 m 543 1111 l 407 1043 l 195 1043 l 57 1111 l 195 1198 l 407 1198 l 543 1111 z "},"è":{"ha":583,"x_min":39,"x_max":583,"o":"m 583 972 l 428 817 l 215 817 l 58 972 l 583 972 m 195 593 l 39 496 l 39 953 l 195 798 l 195 593 m 564 486 l 428 418 l 215 418 l 78 486 l 215 574 l 428 574 l 564 486 m 195 175 l 39 20 l 39 476 l 195 399 l 195 175 m 583 0 l 58 0 l 215 155 l 428 155 l 583 0 m 539 1111 l 403 1043 l 191 1043 l 53 1111 l 191 1198 l 403 1198 l 539 1111 z "},"ê":{"ha":583,"x_min":39,"x_max":583,"o":"m 583 972 l 428 817 l 215 817 l 58 972 l 583 972 m 195 593 l 39 496 l 39 953 l 195 798 l 195 593 m 564 486 l 428 418 l 215 418 l 78 486 l 215 574 l 428 574 l 564 486 m 195 175 l 39 20 l 39 476 l 195 399 l 195 175 m 583 0 l 58 0 l 215 155 l 428 155 l 583 0 m 550 1111 l 414 1043 l 201 1043 l 64 1111 l 201 1198 l 414 1198 l 550 1111 z "},"ë":{"ha":583,"x_min":39,"x_max":583,"o":"m 583 972 l 428 817 l 215 817 l 58 972 l 583 972 m 195 593 l 39 496 l 39 953 l 195 798 l 195 593 m 564 486 l 428 418 l 215 418 l 78 486 l 215 574 l 428 574 l 564 486 m 195 175 l 39 20 l 39 476 l 195 399 l 195 175 m 583 0 l 58 0 l 215 155 l 428 155 l 583 0 m 536 1111 l 422 1043 l 315 1111 l 422 1198 l 536 1111 m 278 1111 l 164 1043 l 57 1111 l 164 1198 l 278 1111 z "},"í":{"ha":233,"x_min":-118,"x_max":368,"o":"m 195 496 l 39 593 l 39 817 l 195 972 l 195 496 m 195 0 l 39 155 l 39 399 l 195 476 l 195 0 m 368 1111 l 232 1043 l 20 1043 l -118 1111 l 20 1198 l 232 1198 l 368 1111 z "},"ì":{"ha":233,"x_min":-113,"x_max":372,"o":"m 195 496 l 39 593 l 39 817 l 195 972 l 195 496 m 195 0 l 39 155 l 39 399 l 195 476 l 195 0 m 372 1111 l 236 1043 l 24 1043 l -114 1111 l 24 1198 l 236 1198 l 372 1111 z "},"î":{"ha":233,"x_min":-109,"x_max":376,"o":"m 195 496 l 39 593 l 39 817 l 195 972 l 195 496 m 195 0 l 39 155 l 39 399 l 195 476 l 195 0 m 376 1111 l 240 1043 l 28 1043 l -110 1111 l 28 1198 l 240 1198 l 376 1111 z "},"ï":{"ha":233,"x_min":-126,"x_max":353,"o":"m 195 496 l 39 593 l 39 817 l 195 972 l 195 496 m 195 0 l 39 155 l 39 399 l 195 476 l 195 0 m 353 1111 l 239 1043 l 132 1111 l 239 1198 l 353 1111 m 94 1111 l -20 1043 l -126 1111 l -20 1198 l 94 1111 z "},"ñ":{"ha":643,"x_min":39,"x_max":604,"o":"m 515 904 l 428 817 l 215 817 l 126 904 l 195 972 l 447 972 l 515 904 m 604 496 l 447 593 l 447 798 l 534 885 l 604 817 l 604 496 m 195 593 l 39 496 l 39 817 l 107 885 l 195 798 l 195 593 m 604 0 l 447 175 l 447 399 l 604 476 l 604 0 m 195 136 l 39 0 l 39 476 l 195 399 l 195 136 m 564 1111 l 428 1043 l 215 1043 l 78 1111 l 215 1198 l 428 1198 l 564 1111 z "},"ó":{"ha":643,"x_min":39,"x_max":604,"o":"m 515 904 l 428 817 l 215 817 l 126 904 l 195 972 l 447 972 l 515 904 m 604 496 l 447 593 l 447 798 l 534 885 l 604 817 l 604 496 m 195 593 l 39 496 l 39 817 l 107 885 l 195 798 l 195 593 m 604 155 l 534 87 l 447 175 l 447 399 l 604 476 l 604 155 m 195 175 l 107 87 l 39 155 l 39 476 l 195 399 l 195 175 m 515 68 l 447 0 l 195 0 l 126 68 l 215 155 l 428 155 l 515 68 m 564 1111 l 428 1043 l 215 1043 l 78 1111 l 215 1198 l 428 1198 l 564 1111 z "},"ò":{"ha":643,"x_min":39,"x_max":604,"o":"m 515 904 l 428 817 l 215 817 l 126 904 l 195 972 l 447 972 l 515 904 m 604 496 l 447 593 l 447 798 l 534 885 l 604 817 l 604 496 m 195 593 l 39 496 l 39 817 l 107 885 l 195 798 l 195 593 m 604 155 l 534 87 l 447 175 l 447 399 l 604 476 l 604 155 m 195 175 l 107 87 l 39 155 l 39 476 l 195 399 l 195 175 m 515 68 l 447 0 l 195 0 l 126 68 l 215 155 l 428 155 l 515 68 m 564 1111 l 428 1043 l 215 1043 l 78 1111 l 215 1198 l 428 1198 l 564 1111 z "},"ô":{"ha":643,"x_min":39,"x_max":604,"o":"m 515 904 l 428 817 l 215 817 l 126 904 l 195 972 l 447 972 l 515 904 m 604 496 l 447 593 l 447 798 l 534 885 l 604 817 l 604 496 m 195 593 l 39 496 l 39 817 l 107 885 l 195 798 l 195 593 m 604 155 l 534 87 l 447 175 l 447 399 l 604 476 l 604 155 m 195 175 l 107 87 l 39 155 l 39 476 l 195 399 l 195 175 m 515 68 l 447 0 l 195 0 l 126 68 l 215 155 l 428 155 l 515 68 m 564 1111 l 428 1043 l 215 1043 l 78 1111 l 215 1198 l 428 1198 l 564 1111 z "},"ö":{"ha":643,"x_min":39,"x_max":604,"o":"m 515 904 l 428 817 l 215 817 l 126 904 l 195 972 l 447 972 l 515 904 m 604 496 l 447 593 l 447 798 l 534 885 l 604 817 l 604 496 m 195 593 l 39 496 l 39 817 l 107 885 l 195 798 l 195 593 m 604 155 l 534 87 l 447 175 l 447 399 l 604 476 l 604 155 m 195 175 l 107 87 l 39 155 l 39 476 l 195 399 l 195 175 m 515 68 l 447 0 l 195 0 l 126 68 l 215 155 l 428 155 l 515 68 m 557 1111 l 443 1043 l 336 1111 l 443 1198 l 557 1111 m 298 1111 l 184 1043 l 78 1111 l 184 1198 l 298 1111 z "},"õ":{"ha":643,"x_min":39,"x_max":604,"o":"m 515 904 l 428 817 l 215 817 l 126 904 l 195 972 l 447 972 l 515 904 m 604 496 l 447 593 l 447 798 l 534 885 l 604 817 l 604 496 m 195 593 l 39 496 l 39 817 l 107 885 l 195 798 l 195 593 m 604 155 l 534 87 l 447 175 l 447 399 l 604 476 l 604 155 m 195 175 l 107 87 l 39 155 l 39 476 l 195 399 l 195 175 m 515 68 l 447 0 l 195 0 l 126 68 l 215 155 l 428 155 l 515 68 m 564 1111 l 428 1043 l 215 1043 l 78 1111 l 215 1198 l 428 1198 l 564 1111 z "},"ú":{"ha":643,"x_min":39,"x_max":604,"o":"m 604 496 l 447 593 l 447 817 l 604 972 l 604 496 m 195 593 l 39 496 l 39 972 l 195 817 l 195 593 m 604 155 l 534 87 l 447 175 l 447 399 l 604 476 l 604 155 m 195 175 l 107 87 l 39 155 l 39 476 l 195 399 l 195 175 m 515 68 l 447 0 l 195 0 l 126 68 l 215 155 l 428 155 l 515 68 m 564 1111 l 428 1043 l 215 1043 l 78 1111 l 215 1198 l 428 1198 l 564 1111 z "},"ù":{"ha":643,"x_min":39,"x_max":604,"o":"m 604 496 l 447 593 l 447 817 l 604 972 l 604 496 m 195 593 l 39 496 l 39 972 l 195 817 l 195 593 m 604 155 l 534 87 l 447 175 l 447 399 l 604 476 l 604 155 m 195 175 l 107 87 l 39 155 l 39 476 l 195 399 l 195 175 m 515 68 l 447 0 l 195 0 l 126 68 l 215 155 l 428 155 l 515 68 m 564 1111 l 428 1043 l 215 1043 l 78 1111 l 215 1198 l 428 1198 l 564 1111 z "},"û":{"ha":643,"x_min":39,"x_max":604,"o":"m 604 496 l 447 593 l 447 817 l 604 972 l 604 496 m 195 593 l 39 496 l 39 972 l 195 817 l 195 593 m 604 155 l 534 87 l 447 175 l 447 399 l 604 476 l 604 155 m 195 175 l 107 87 l 39 155 l 39 476 l 195 399 l 195 175 m 515 68 l 447 0 l 195 0 l 126 68 l 215 155 l 428 155 l 515 68 m 559 1111 l 424 1043 l 211 1043 l 74 1111 l 211 1198 l 424 1198 l 559 1111 z "},"ü":{"ha":643,"x_min":39,"x_max":604,"o":"m 604 496 l 447 593 l 447 817 l 604 972 l 604 496 m 195 593 l 39 496 l 39 972 l 195 817 l 195 593 m 604 155 l 534 87 l 447 175 l 447 399 l 604 476 l 604 155 m 195 175 l 107 87 l 39 155 l 39 476 l 195 399 l 195 175 m 515 68 l 447 0 l 195 0 l 126 68 l 215 155 l 428 155 l 515 68 m 557 1111 l 443 1043 l 336 1111 l 443 1198 l 557 1111 m 298 1111 l 184 1043 l 78 1111 l 184 1198 l 298 1111 z "},"†":{"ha":0,"x_min":0,"x_max":0,"o":""},"°":{"ha":577,"x_min":0,"x_max":0,"o":""},"¢":{"ha":605,"x_min":39,"x_max":586,"o":"m 393 1018 l 310 937 l 235 1015 l 235 1092 l 313 1166 l 393 1093 l 393 1018 m 586 972 l 427 817 l 215 817 l 131 901 l 195 972 l 236 972 l 311 896 l 389 972 l 586 972 m 195 572 l 40 497 l 40 815 l 110 885 l 195 796 l 195 572 m 195 171 l 107 85 l 39 153 l 39 478 l 195 379 l 195 171 m 585 0 l 392 0 l 314 75 l 236 0 l 193 0 l 129 64 l 216 155 l 429 155 l 585 0 m 392 -121 l 314 -201 l 235 -118 l 235 -43 l 314 33 l 392 -43 l 392 -121 z "},"£":{"ha":739,"x_min":-19,"x_max":719,"o":"m 681 972 l 551 817 l 334 817 l 248 901 l 317 972 l 681 972 m 315 597 l 239 513 l 160 595 l 160 817 l 227 884 l 315 796 l 315 597 m 510 488 l 378 418 l 334 418 l 258 496 l 334 574 l 379 574 l 510 488 m 216 497 l 143 418 l 94 418 l -20 497 l 74 574 l 142 574 l 216 497 m 315 172 l 158 0 l 158 397 l 236 478 l 315 397 l 315 172 m 720 0 l 195 0 l 336 155 l 587 155 l 720 0 z "},"§":{"ha":643,"x_min":37,"x_max":604,"o":"m 604 972 l 428 817 l 215 817 l 126 904 l 195 972 l 604 972 m 195 654 l 39 557 l 39 817 l 107 885 l 195 798 l 195 654 m 568 549 l 427 481 l 214 481 l 79 549 l 214 636 l 439 636 l 568 549 m 195 237 l 37 160 l 37 541 l 195 461 l 195 237 m 603 160 l 447 237 l 447 461 l 603 538 l 603 160 m 564 150 l 427 62 l 214 62 l 78 150 l 214 218 l 427 218 l 564 150 m 603 -97 l 534 -165 l 447 -78 l 447 43 l 603 140 l 603 -97 m 515 -184 l 447 -253 l 37 -253 l 214 -97 l 427 -97 l 515 -184 z "},"•":{"ha":491,"x_min":64,"x_max":427,"o":"m 428 486 q 375 357 428 410 q 245 304 322 304 q 117 357 170 304 q 64 486 64 410 q 117 615 64 562 q 245 668 170 668 q 375 615 322 668 q 428 486 428 562 z "},"¶":{"ha":0,"x_min":0,"x_max":0,"o":""},"ß":{"ha":1286,"x_min":39,"x_max":1247,"o":"m 1247 972 l 1071 817 l 859 817 l 770 904 l 838 972 l 1247 972 m 604 972 l 428 817 l 215 817 l 126 904 l 195 972 l 604 972 m 838 593 l 682 496 l 682 817 l 750 885 l 838 798 l 838 593 m 195 593 l 39 496 l 39 817 l 107 885 l 195 798 l 195 593 m 1207 486 l 1071 418 l 859 418 l 721 486 l 859 574 l 1071 574 l 1207 486 m 564 486 l 428 418 l 215 418 l 78 486 l 215 574 l 428 574 l 564 486 m 1247 155 l 1178 87 l 1090 175 l 1090 399 l 1247 476 l 1247 155 m 604 155 l 534 87 l 447 175 l 447 399 l 604 476 l 604 155 m 1158 68 l 1090 0 l 682 0 l 859 155 l 1071 155 l 1158 68 m 515 68 l 447 0 l 39 0 l 215 155 l 428 155 l 515 68 z "},"®":{"ha":1023,"x_min":2,"x_max":1025,"o":"m 514 1011 q 766 945 643 1011 q 957 756 888 879 q 1025 499 1025 633 q 958 245 1025 367 q 769 55 890 123 q 514 -12 647 -12 q 259 55 381 -12 q 70 245 138 123 q 2 499 2 367 q 71 756 2 633 q 262 945 140 879 q 514 1011 385 1011 m 514 926 q 304 871 406 926 q 144 713 202 816 q 87 499 87 610 q 143 287 87 389 q 302 129 200 186 q 514 73 404 73 q 726 129 625 73 q 884 287 828 186 q 941 499 941 389 q 883 713 941 610 q 724 871 826 816 q 514 926 621 926 m 290 216 l 290 767 l 479 767 q 619 752 576 767 q 688 699 663 736 q 714 618 714 661 q 671 513 714 557 q 557 463 628 468 q 604 433 586 450 q 685 324 637 401 l 752 216 l 644 216 l 595 303 q 502 431 537 406 q 431 450 477 450 l 378 450 l 378 216 l 290 216 m 378 526 l 486 526 q 592 549 564 526 q 620 610 620 572 q 606 654 620 635 q 569 683 593 673 q 479 692 545 692 l 378 692 l 378 526 z "},"©":{"ha":1023,"x_min":2,"x_max":1025,"o":"m 514 1011 q 766 945 643 1011 q 957 756 888 879 q 1025 499 1025 633 q 958 245 1025 367 q 769 55 890 123 q 514 -12 647 -12 q 259 55 381 -12 q 70 245 138 123 q 2 499 2 367 q 71 756 2 633 q 262 945 140 879 q 514 1011 385 1011 m 514 926 q 304 871 406 926 q 144 713 202 816 q 87 499 87 610 q 143 287 87 389 q 302 129 200 186 q 514 73 404 73 q 726 129 625 73 q 884 287 828 186 q 941 499 941 389 q 883 713 941 610 q 724 871 826 816 q 514 926 621 926 m 678 416 l 762 392 q 675 257 741 307 q 515 206 609 206 q 321 283 395 206 q 246 498 246 361 q 280 653 246 587 q 377 753 314 720 q 520 787 439 787 q 670 744 610 787 q 751 627 730 701 l 671 607 q 611 684 650 657 q 517 711 571 711 q 389 655 439 711 q 338 496 338 600 q 386 339 338 392 q 510 286 434 286 q 617 321 571 286 q 678 416 663 356 z "},"™":{"ha":1389,"x_min":153,"x_max":1209,"o":"m 332 441 l 332 912 l 153 912 l 153 994 l 604 994 l 604 912 l 424 912 l 424 441 l 332 441 m 666 441 l 666 994 l 802 994 l 941 553 l 1076 994 l 1209 994 l 1209 441 l 1125 441 l 1125 905 l 983 441 l 899 441 l 751 912 l 751 441 l 666 441 z "},"´":{"ha":643,"x_min":77,"x_max":564,"o":"m 564 1111 l 428 1043 l 215 1043 l 78 1111 l 215 1198 l 428 1198 l 564 1111 z "},"¨":{"ha":0,"x_min":77,"x_max":557,"o":"m 557 1111 l 443 1043 l 336 1111 l 443 1198 l 557 1111 m 298 1111 l 184 1043 l 78 1111 l 184 1198 l 298 1111 z "},"≠":{"ha":793,"x_min":0,"x_max":0,"o":""},"Æ":{"ha":1226,"x_min":39,"x_max":1226,"o":"m 1226 972 l 1071 817 l 859 817 l 701 972 l 1226 972 m 583 972 l 428 817 l 215 817 l 58 972 l 583 972 m 838 593 l 682 496 l 682 953 l 838 798 l 838 593 m 604 496 l 447 593 l 447 798 l 604 953 l 604 496 m 195 593 l 39 496 l 39 953 l 195 798 l 195 593 m 1207 486 l 1071 418 l 859 418 l 721 486 l 859 574 l 1071 574 l 1207 486 m 564 486 l 428 418 l 215 418 l 78 486 l 215 574 l 428 574 l 564 486 m 838 175 l 682 20 l 682 476 l 838 399 l 838 175 m 604 0 l 447 155 l 447 399 l 604 476 l 604 0 m 195 155 l 39 0 l 39 476 l 195 399 l 195 155 m 1226 0 l 701 0 l 859 155 l 1071 155 l 1226 0 z "},"Ø":{"ha":643,"x_min":39,"x_max":604,"o":"m 429 692 l 317 504 l 317 798 l 429 798 l 429 692 m 325 175 l 212 175 l 212 281 l 325 468 l 325 175 m 515 904 l 428 817 l 215 817 l 126 904 l 195 972 l 447 972 l 515 904 m 604 496 l 447 593 l 447 798 l 534 885 l 604 817 l 604 496 m 195 593 l 39 496 l 39 817 l 107 885 l 195 798 l 195 593 m 604 155 l 534 87 l 447 175 l 447 399 l 604 476 l 604 155 m 195 175 l 107 87 l 39 155 l 39 476 l 195 399 l 195 175 m 515 68 l 447 0 l 195 0 l 126 68 l 215 155 l 428 155 l 515 68 z "},"∞":{"ha":1030,"x_min":0,"x_max":0,"o":""},"±":{"ha":793,"x_min":0,"x_max":0,"o":""},"≤":{"ha":793,"x_min":0,"x_max":0,"o":""},"≥":{"ha":793,"x_min":0,"x_max":0,"o":""},"¥":{"ha":643,"x_min":36,"x_max":608,"o":"m 604 496 l 447 593 l 447 817 l 604 972 l 604 496 m 195 593 l 39 496 l 39 972 l 195 817 l 195 593 m 564 486 l 428 418 l 215 418 l 78 486 l 215 574 l 428 574 l 564 486 m 401 325 l 318 262 l 241 323 l 241 389 l 401 389 l 401 325 m 608 241 l 500 163 l 429 163 l 328 239 l 432 318 l 500 318 l 608 241 m 310 239 l 199 163 l 140 163 l 36 239 l 140 318 l 205 318 l 310 239 m 399 81 l 319 0 l 240 81 l 240 158 l 319 216 l 399 157 l 399 81 z "},"µ":{"ha":831,"x_min":0,"x_max":0,"o":""},"∂":{"ha":713,"x_min":0,"x_max":0,"o":""},"∑":{"ha":1030,"x_min":0,"x_max":0,"o":""},"∏":{"ha":1189,"x_min":0,"x_max":0,"o":""},"∫":{"ha":395,"x_min":0,"x_max":0,"o":""},"ª":{"ha":450,"x_min":27,"x_max":422,"o":"m 408 972 l 300 864 l 150 864 l 40 972 l 408 972 m 422 639 l 313 707 l 313 850 l 422 958 l 422 639 m 136 707 l 28 639 l 28 958 l 136 850 l 136 707 m 395 632 l 300 585 l 150 585 l 54 632 l 150 693 l 300 693 l 395 632 m 422 292 l 313 400 l 313 571 l 422 625 l 422 292 m 136 400 l 28 292 l 28 625 l 136 571 l 136 400 z "},"º":{"ha":450,"x_min":27,"x_max":422,"o":"m 361 925 l 300 864 l 150 864 l 89 925 l 136 972 l 313 972 l 361 925 m 422 639 l 313 707 l 313 850 l 374 911 l 422 864 l 422 639 m 136 707 l 28 639 l 28 864 l 75 911 l 136 850 l 136 707 m 422 400 l 374 353 l 313 414 l 313 571 l 422 625 l 422 400 m 136 414 l 75 353 l 28 400 l 28 625 l 136 571 l 136 414 m 361 339 l 313 292 l 136 292 l 89 339 l 150 400 l 300 400 l 361 339 z "},"Ω":{"ha":1109,"x_min":0,"x_max":0,"o":""},"æ":{"ha":1226,"x_min":39,"x_max":1226,"o":"m 1226 972 l 1071 817 l 859 817 l 701 972 l 1226 972 m 583 972 l 428 817 l 215 817 l 58 972 l 583 972 m 838 593 l 682 496 l 682 953 l 838 798 l 838 593 m 604 496 l 447 593 l 447 798 l 604 953 l 604 496 m 195 593 l 39 496 l 39 953 l 195 798 l 195 593 m 1207 486 l 1071 418 l 859 418 l 721 486 l 859 574 l 1071 574 l 1207 486 m 564 486 l 428 418 l 215 418 l 78 486 l 215 574 l 428 574 l 564 486 m 838 175 l 682 20 l 682 476 l 838 399 l 838 175 m 604 0 l 447 155 l 447 399 l 604 476 l 604 0 m 195 155 l 39 0 l 39 476 l 195 399 l 195 155 m 1226 0 l 701 0 l 859 155 l 1071 155 l 1226 0 z "},"ø":{"ha":643,"x_min":39,"x_max":604,"o":"m 429 692 l 317 504 l 317 798 l 429 798 l 429 692 m 325 175 l 212 175 l 212 281 l 325 468 l 325 175 m 515 904 l 428 817 l 215 817 l 126 904 l 195 972 l 447 972 l 515 904 m 604 496 l 447 593 l 447 798 l 534 885 l 604 817 l 604 496 m 195 593 l 39 496 l 39 817 l 107 885 l 195 798 l 195 593 m 604 155 l 534 87 l 447 175 l 447 399 l 604 476 l 604 155 m 195 175 l 107 87 l 39 155 l 39 476 l 195 399 l 195 175 m 515 68 l 447 0 l 195 0 l 126 68 l 215 155 l 428 155 l 515 68 z "},"¿":{"ha":564,"x_min":39,"x_max":564,"o":"m 428 729 l 272 729 l 272 972 l 428 972 l 428 729 m 428 399 l 214 399 l 78 486 l 214 554 l 428 554 l 428 399 m 195 175 l 107 87 l 39 155 l 39 476 l 195 379 l 195 175 m 564 0 l 195 0 l 126 68 l 214 155 l 428 155 l 564 0 z "},"¡":{"ha":233,"x_min":39,"x_max":194,"o":"m 195 729 l 39 729 l 39 972 l 195 972 l 195 729 m 195 155 l 39 0 l 39 671 l 195 574 l 195 155 z "},"¬":{"ha":1030,"x_min":22,"x_max":981,"o":"m 982 0 l 901 0 l 901 336 l 22 336 l 22 416 l 982 416 l 982 0 z "},"√":{"ha":793,"x_min":0,"x_max":0,"o":""},"ƒ":{"ha":722,"x_min":1,"x_max":715,"o":"m 715 895 q 694 849 715 868 q 643 829 673 829 q 607 851 621 829 q 590 882 590 872 l 591 889 l 607 924 l 608 932 q 579 953 608 953 q 513 912 543 953 q 473 811 482 872 l 446 621 l 443 603 l 628 603 l 614 553 l 437 553 l 393 195 l 378 127 l 342 -33 q 258 -208 321 -125 q 121 -278 204 -278 q 35 -250 68 -278 q 1 -179 1 -222 q 21 -128 1 -149 q 71 -107 40 -107 q 112 -122 96 -107 q 127 -158 127 -136 q 117 -200 127 -167 l 111 -215 l 110 -225 l 110 -232 l 118 -239 l 132 -239 q 200 -201 175 -239 q 243 -72 225 -163 l 260 12 l 265 62 l 315 553 l 146 553 l 165 603 l 326 603 q 421 887 349 783 q 603 990 494 990 q 682 962 648 990 q 715 895 715 935 z "},"≈":{"ha":793,"x_min":0,"x_max":0,"o":""},"∆":{"ha":883,"x_min":0,"x_max":0,"o":""},"«":{"ha":0,"x_min":0,"x_max":0,"o":""},"»":{"ha":0,"x_min":0,"x_max":0,"o":""},"…":{"ha":833,"x_min":71,"x_max":782,"o":"m 782 0 l 627 0 l 627 243 l 782 243 l 782 0 m 504 0 l 349 0 l 349 243 l 504 243 l 504 0 m 227 0 l 71 0 l 71 243 l 227 243 l 227 0 z "},"À":{"ha":391,"x_min":0,"x_max":0,"o":""},"Ã":{"ha":643,"x_min":39,"x_max":604,"o":"m 583 972 l 428 817 l 215 817 l 58 972 l 583 972 m 604 496 l 447 593 l 447 798 l 604 953 l 604 496 m 195 593 l 39 496 l 39 953 l 195 798 l 195 593 m 564 486 l 428 418 l 215 418 l 78 486 l 215 574 l 428 574 l 564 486 m 604 0 l 447 155 l 447 399 l 604 476 l 604 0 m 195 155 l 39 0 l 39 476 l 195 399 l 195 155 m 564 1111 l 428 1043 l 215 1043 l 78 1111 l 215 1198 l 428 1198 l 564 1111 z "},"Õ":{"ha":643,"x_min":39,"x_max":604,"o":"m 583 972 l 428 817 l 215 817 l 58 972 l 583 972 m 604 496 l 447 593 l 447 798 l 604 953 l 604 496 m 195 593 l 39 496 l 39 953 l 195 798 l 195 593 m 564 486 l 428 418 l 215 418 l 78 486 l 215 574 l 428 574 l 564 486 m 604 0 l 447 155 l 447 399 l 604 476 l 604 0 m 195 155 l 39 0 l 39 476 l 195 399 l 195 155 m 564 1111 l 428 1043 l 215 1043 l 78 1111 l 215 1198 l 428 1198 l 564 1111 z "},"Œ":{"ha":643,"x_min":39,"x_max":604,"o":"m 515 904 l 428 817 l 215 817 l 126 904 l 195 972 l 447 972 l 515 904 m 604 496 l 447 593 l 447 798 l 534 885 l 604 817 l 604 496 m 195 593 l 39 496 l 39 817 l 107 885 l 195 798 l 195 593 m 604 155 l 534 87 l 447 175 l 447 399 l 604 476 l 604 155 m 195 175 l 107 87 l 39 155 l 39 476 l 195 399 l 195 175 m 515 68 l 447 0 l 195 0 l 126 68 l 215 155 l 428 155 l 515 68 m 564 1111 l 428 1043 l 215 1043 l 78 1111 l 215 1198 l 428 1198 l 564 1111 z "},"œ":{"ha":1226,"x_min":39,"x_max":1226,"o":"m 1226 972 l 1071 817 l 859 817 l 701 972 l 1226 972 m 515 904 l 428 817 l 215 817 l 126 904 l 195 972 l 447 972 l 515 904 m 838 593 l 682 496 l 682 953 l 838 798 l 838 593 m 604 496 l 447 593 l 447 798 l 534 885 l 604 817 l 604 496 m 195 593 l 39 496 l 39 817 l 107 885 l 195 798 l 195 593 m 1207 486 l 1071 418 l 859 418 l 721 486 l 859 574 l 1071 574 l 1207 486 m 604 155 l 534 87 l 447 175 l 447 399 l 604 476 l 604 155 m 195 175 l 107 87 l 39 155 l 39 476 l 195 399 l 195 175 m 838 175 l 682 20 l 682 476 l 838 399 l 838 175 m 1226 0 l 701 0 l 859 155 l 1071 155 l 1226 0 m 515 68 l 447 0 l 195 0 l 126 68 l 215 155 l 428 155 l 515 68 z "},"–":{"ha":1226,"x_min":39,"x_max":1226,"o":"m 1226 972 l 1071 817 l 859 817 l 701 972 l 1226 972 m 515 904 l 428 817 l 215 817 l 126 904 l 195 972 l 447 972 l 515 904 m 838 593 l 682 496 l 682 953 l 838 798 l 838 593 m 604 496 l 447 593 l 447 798 l 534 885 l 604 817 l 604 496 m 195 593 l 39 496 l 39 817 l 107 885 l 195 798 l 195 593 m 1207 486 l 1071 418 l 859 418 l 721 486 l 859 574 l 1071 574 l 1207 486 m 604 155 l 534 87 l 447 175 l 447 399 l 604 476 l 604 155 m 195 175 l 107 87 l 39 155 l 39 476 l 195 399 l 195 175 m 838 175 l 682 20 l 682 476 l 838 399 l 838 175 m 1226 0 l 701 0 l 859 155 l 1071 155 l 1226 0 m 515 68 l 447 0 l 195 0 l 126 68 l 215 155 l 428 155 l 515 68 z "},"—":{"ha":555,"x_min":0,"x_max":555,"o":"m 555 567 l 492 412 l 0 412 l 65 567 l 555 567 z "},"“":{"ha":1111,"x_min":0,"x_max":1111,"o":"m 1111 567 l 1047 412 l 0 412 l 65 567 l 1111 567 z "},"”":{"ha":451,"x_min":29,"x_max":420,"o":"m 421 574 l 267 574 l 267 972 l 421 972 l 421 574 m 184 574 l 29 574 l 29 972 l 184 972 l 184 574 z "},"‘":{"ha":451,"x_min":29,"x_max":420,"o":"m 421 574 l 267 574 l 267 972 l 421 972 l 421 574 m 184 574 l 29 574 l 29 972 l 184 972 l 184 574 z "},"’":{"ha":215,"x_min":29,"x_max":184,"o":"m 184 574 l 29 574 l 29 972 l 184 972 l 184 574 z "},"÷":{"ha":215,"x_min":29,"x_max":184,"o":"m 184 574 l 29 574 l 29 972 l 184 972 l 184 574 z "},"◊":{"ha":793,"x_min":0,"x_max":0,"o":""},"ÿ":{"ha":713,"x_min":0,"x_max":0,"o":""},"Ÿ":{"ha":643,"x_min":39,"x_max":604,"o":"m 557 1111 l 443 1043 l 336 1111 l 443 1198 l 557 1111 m 298 1111 l 184 1043 l 78 1111 l 184 1198 l 298 1111 m 604 496 l 447 593 l 447 817 l 604 972 l 604 496 m 195 593 l 39 496 l 39 972 l 195 817 l 195 593 m 564 486 l 428 418 l 215 418 l 78 486 l 215 574 l 428 574 l 564 486 m 401 87 l 321 0 l 241 87 l 241 389 l 401 389 l 401 87 z "},"⁄":{"ha":643,"x_min":39,"x_max":604,"o":"m 557 1111 l 443 1043 l 336 1111 l 443 1198 l 557 1111 m 298 1111 l 184 1043 l 78 1111 l 184 1198 l 298 1111 m 604 496 l 447 593 l 447 817 l 604 972 l 604 496 m 195 593 l 39 496 l 39 972 l 195 817 l 195 593 m 564 486 l 428 418 l 215 418 l 78 486 l 215 574 l 428 574 l 564 486 m 401 87 l 321 0 l 241 87 l 241 389 l 401 389 l 401 87 z "},"€":{"ha":809,"x_min":19,"x_max":791,"o":"m 791 972 l 478 463 l 392 618 l 607 972 l 791 972 m 461 435 l 201 0 l 20 0 l 282 435 l 461 435 z "},"‹":{"ha":770,"x_min":19,"x_max":753,"o":"m 753 256 l 656 155 l 534 272 q 383 231 464 231 q 304 241 342 231 q 231 273 267 252 l 118 155 l 20 256 l 132 374 q 90 525 90 444 q 101 604 90 567 q 134 677 111 642 l 20 794 l 118 895 l 236 777 q 383 818 304 818 q 536 775 467 818 l 656 895 l 753 794 l 636 676 q 677 525 677 606 q 667 447 677 484 q 636 374 657 410 l 753 256 m 541 525 q 495 636 541 590 q 383 682 449 682 q 272 636 318 682 q 227 525 227 590 q 272 414 227 460 q 383 368 318 368 q 495 414 449 368 q 541 525 541 460 z "},"›":{"ha":0,"x_min":0,"x_max":0,"o":""},"":{"ha":0,"x_min":0,"x_max":0,"o":""},"":{"ha":0,"x_min":0,"x_max":0,"o":""},"‡":{"ha":0,"x_min":0,"x_max":0,"o":""},"·":{"ha":0,"x_min":0,"x_max":0,"o":""},"‚":{"ha":277,"x_min":71,"x_max":226,"o":"m 227 370 l 71 370 l 71 612 l 227 612 l 227 370 z "},"„":{"ha":0,"x_min":0,"x_max":0,"o":""},"‰":{"ha":0,"x_min":0,"x_max":0,"o":""},"Â":{"ha":0,"x_min":0,"x_max":0,"o":""},"Ê":{"ha":643,"x_min":39,"x_max":604,"o":"m 583 972 l 428 817 l 215 817 l 58 972 l 583 972 m 604 496 l 447 593 l 447 798 l 604 953 l 604 496 m 195 593 l 39 496 l 39 953 l 195 798 l 195 593 m 564 486 l 428 418 l 215 418 l 78 486 l 215 574 l 428 574 l 564 486 m 604 0 l 447 155 l 447 399 l 604 476 l 604 0 m 195 155 l 39 0 l 39 476 l 195 399 l 195 155 m 564 1111 l 428 1043 l 215 1043 l 78 1111 l 215 1198 l 428 1198 l 564 1111 z "},"Á":{"ha":583,"x_min":39,"x_max":583,"o":"m 583 972 l 428 817 l 215 817 l 58 972 l 583 972 m 195 593 l 39 496 l 39 953 l 195 798 l 195 593 m 564 486 l 428 418 l 215 418 l 78 486 l 215 574 l 428 574 l 564 486 m 195 175 l 39 20 l 39 476 l 195 399 l 195 175 m 583 0 l 58 0 l 215 155 l 428 155 l 583 0 m 550 1111 l 414 1043 l 201 1043 l 64 1111 l 201 1198 l 414 1198 l 550 1111 z "},"Ë":{"ha":643,"x_min":39,"x_max":604,"o":"m 583 972 l 428 817 l 215 817 l 58 972 l 583 972 m 604 496 l 447 593 l 447 798 l 604 953 l 604 496 m 195 593 l 39 496 l 39 953 l 195 798 l 195 593 m 564 486 l 428 418 l 215 418 l 78 486 l 215 574 l 428 574 l 564 486 m 604 0 l 447 155 l 447 399 l 604 476 l 604 0 m 195 155 l 39 0 l 39 476 l 195 399 l 195 155 m 559 1111 l 424 1043 l 211 1043 l 74 1111 l 211 1198 l 424 1198 l 559 1111 z "},"È":{"ha":583,"x_min":39,"x_max":583,"o":"m 583 972 l 428 817 l 215 817 l 58 972 l 583 972 m 195 593 l 39 496 l 39 953 l 195 798 l 195 593 m 564 486 l 428 418 l 215 418 l 78 486 l 215 574 l 428 574 l 564 486 m 195 175 l 39 20 l 39 476 l 195 399 l 195 175 m 583 0 l 58 0 l 215 155 l 428 155 l 583 0 m 536 1111 l 422 1043 l 315 1111 l 422 1198 l 536 1111 m 278 1111 l 164 1043 l 57 1111 l 164 1198 l 278 1111 z "},"Í":{"ha":583,"x_min":39,"x_max":583,"o":"m 583 972 l 428 817 l 215 817 l 58 972 l 583 972 m 195 593 l 39 496 l 39 953 l 195 798 l 195 593 m 564 486 l 428 418 l 215 418 l 78 486 l 215 574 l 428 574 l 564 486 m 195 175 l 39 20 l 39 476 l 195 399 l 195 175 m 583 0 l 58 0 l 215 155 l 428 155 l 583 0 m 539 1111 l 403 1043 l 191 1043 l 53 1111 l 191 1198 l 403 1198 l 539 1111 z "},"Î":{"ha":233,"x_min":-118,"x_max":368,"o":"m 195 496 l 39 593 l 39 817 l 195 972 l 195 496 m 195 0 l 39 155 l 39 399 l 195 476 l 195 0 m 368 1111 l 232 1043 l 20 1043 l -118 1111 l 20 1198 l 232 1198 l 368 1111 z "},"Ï":{"ha":233,"x_min":-109,"x_max":376,"o":"m 195 496 l 39 593 l 39 817 l 195 972 l 195 496 m 195 0 l 39 155 l 39 399 l 195 476 l 195 0 m 376 1111 l 240 1043 l 28 1043 l -110 1111 l 28 1198 l 240 1198 l 376 1111 z "},"Ì":{"ha":233,"x_min":-126,"x_max":353,"o":"m 195 496 l 39 593 l 39 817 l 195 972 l 195 496 m 195 0 l 39 155 l 39 399 l 195 476 l 195 0 m 353 1111 l 239 1043 l 132 1111 l 239 1198 l 353 1111 m 94 1111 l -20 1043 l -126 1111 l -20 1198 l 94 1111 z "},"Ó":{"ha":233,"x_min":-113,"x_max":372,"o":"m 195 496 l 39 593 l 39 817 l 195 972 l 195 496 m 195 0 l 39 155 l 39 399 l 195 476 l 195 0 m 372 1111 l 236 1043 l 24 1043 l -114 1111 l 24 1198 l 236 1198 l 372 1111 z "},"Ô":{"ha":643,"x_min":39,"x_max":604,"o":"m 515 904 l 428 817 l 215 817 l 126 904 l 195 972 l 447 972 l 515 904 m 604 496 l 447 593 l 447 798 l 534 885 l 604 817 l 604 496 m 195 593 l 39 496 l 39 817 l 107 885 l 195 798 l 195 593 m 604 155 l 534 87 l 447 175 l 447 399 l 604 476 l 604 155 m 195 175 l 107 87 l 39 155 l 39 476 l 195 399 l 195 175 m 515 68 l 447 0 l 195 0 l 126 68 l 215 155 l 428 155 l 515 68 m 564 1111 l 428 1043 l 215 1043 l 78 1111 l 215 1198 l 428 1198 l 564 1111 z "},"Ò":{"ha":643,"x_min":39,"x_max":604,"o":"m 515 904 l 428 817 l 215 817 l 126 904 l 195 972 l 447 972 l 515 904 m 604 496 l 447 593 l 447 798 l 534 885 l 604 817 l 604 496 m 195 593 l 39 496 l 39 817 l 107 885 l 195 798 l 195 593 m 604 155 l 534 87 l 447 175 l 447 399 l 604 476 l 604 155 m 195 175 l 107 87 l 39 155 l 39 476 l 195 399 l 195 175 m 515 68 l 447 0 l 195 0 l 126 68 l 215 155 l 428 155 l 515 68 m 564 1111 l 428 1043 l 215 1043 l 78 1111 l 215 1198 l 428 1198 l 564 1111 z "},"Ú":{"ha":1141,"x_min":0,"x_max":0,"o":""},"Û":{"ha":643,"x_min":39,"x_max":604,"o":"m 515 904 l 428 817 l 215 817 l 126 904 l 195 972 l 447 972 l 515 904 m 604 496 l 447 593 l 447 798 l 534 885 l 604 817 l 604 496 m 195 593 l 39 496 l 39 817 l 107 885 l 195 798 l 195 593 m 604 155 l 534 87 l 447 175 l 447 399 l 604 476 l 604 155 m 195 175 l 107 87 l 39 155 l 39 476 l 195 399 l 195 175 m 515 68 l 447 0 l 195 0 l 126 68 l 215 155 l 428 155 l 515 68 m 564 1111 l 428 1043 l 215 1043 l 78 1111 l 215 1198 l 428 1198 l 564 1111 z "},"Ù":{"ha":643,"x_min":39,"x_max":604,"o":"m 604 496 l 447 593 l 447 817 l 604 972 l 604 496 m 195 593 l 39 496 l 39 972 l 195 817 l 195 593 m 604 155 l 534 87 l 447 175 l 447 399 l 604 476 l 604 155 m 195 175 l 107 87 l 39 155 l 39 476 l 195 399 l 195 175 m 515 68 l 447 0 l 195 0 l 126 68 l 215 155 l 428 155 l 515 68 m 564 1111 l 428 1043 l 215 1043 l 78 1111 l 215 1198 l 428 1198 l 564 1111 z "},"ı":{"ha":643,"x_min":39,"x_max":604,"o":"m 604 496 l 447 593 l 447 817 l 604 972 l 604 496 m 195 593 l 39 496 l 39 972 l 195 817 l 195 593 m 604 155 l 534 87 l 447 175 l 447 399 l 604 476 l 604 155 m 195 175 l 107 87 l 39 155 l 39 476 l 195 399 l 195 175 m 515 68 l 447 0 l 195 0 l 126 68 l 215 155 l 428 155 l 515 68 m 559 1111 l 424 1043 l 211 1043 l 74 1111 l 211 1198 l 424 1198 l 559 1111 z "},"ˆ":{"ha":643,"x_min":39,"x_max":604,"o":"m 604 496 l 447 593 l 447 817 l 604 972 l 604 496 m 195 593 l 39 496 l 39 972 l 195 817 l 195 593 m 604 155 l 534 87 l 447 175 l 447 399 l 604 476 l 604 155 m 195 175 l 107 87 l 39 155 l 39 476 l 195 399 l 195 175 m 515 68 l 447 0 l 195 0 l 126 68 l 215 155 l 428 155 l 515 68 m 564 1111 l 428 1043 l 215 1043 l 78 1111 l 215 1198 l 428 1198 l 564 1111 z "},"˜":{"ha":233,"x_min":39,"x_max":194,"o":"m 195 496 l 39 593 l 39 817 l 195 972 l 195 496 m 195 0 l 39 155 l 39 399 l 195 476 l 195 0 z "},"ˉ":{"ha":643,"x_min":77,"x_max":564,"o":"m 564 1111 l 428 1043 l 215 1043 l 78 1111 l 215 1198 l 428 1198 l 564 1111 z "},"˘":{"ha":643,"x_min":77,"x_max":564,"o":"m 564 1111 l 428 1043 l 215 1043 l 78 1111 l 215 1198 l 428 1198 l 564 1111 z "},"˙":{"ha":643,"x_min":77,"x_max":564,"o":"m 564 1111 l 428 1043 l 215 1043 l 78 1111 l 215 1198 l 428 1198 l 564 1111 z "},"˚":{"ha":643,"x_min":77,"x_max":564,"o":"m 564 1111 l 428 1043 l 215 1043 l 78 1111 l 215 1198 l 428 1198 l 564 1111 z "},"¸":{"ha":0,"x_min":119,"x_max":488,"o":"m 489 1111 l 353 1043 l 256 1043 l 119 1111 l 256 1198 l 353 1198 l 489 1111 z "},"˝":{"ha":0,"x_min":119,"x_max":488,"o":"m 489 1111 l 353 1043 l 256 1043 l 119 1111 l 256 1198 l 353 1198 l 489 1111 z "},"˛":{"ha":583,"x_min":301,"x_max":398,"o":"m 399 -201 l 301 -109 l 399 -12 l 399 -201 z "},"ˇ":{"ha":0,"x_min":77,"x_max":557,"o":"m 557 1111 l 443 1043 l 336 1111 l 443 1198 l 557 1111 m 298 1111 l 184 1043 l 78 1111 l 184 1198 l 298 1111 z "},"Ł":{"ha":583,"x_min":332,"x_max":429,"o":"m 429 -109 l 332 -201 l 332 -12 l 429 -109 z "},"ł":{"ha":643,"x_min":77,"x_max":564,"o":"m 564 1111 l 428 1043 l 215 1043 l 78 1111 l 215 1198 l 428 1198 l 564 1111 z "},"Š":{"ha":0,"x_min":0,"x_max":0,"o":""},"š":{"ha":0,"x_min":0,"x_max":0,"o":""},"Ž":{"ha":643,"x_min":39,"x_max":604,"o":"m 604 972 l 428 817 l 215 817 l 126 904 l 195 972 l 604 972 m 195 593 l 39 496 l 39 817 l 107 885 l 195 798 l 195 593 m 564 486 l 428 418 l 215 418 l 78 486 l 215 574 l 428 574 l 564 486 m 604 155 l 534 87 l 447 175 l 447 399 l 604 476 l 604 155 m 515 68 l 447 0 l 39 0 l 215 155 l 428 155 l 515 68 m 564 1111 l 428 1043 l 215 1043 l 78 1111 l 215 1198 l 428 1198 l 564 1111 z "},"ž":{"ha":643,"x_min":39,"x_max":604,"o":"m 604 972 l 428 817 l 215 817 l 126 904 l 195 972 l 604 972 m 195 593 l 39 496 l 39 817 l 107 885 l 195 798 l 195 593 m 564 486 l 428 418 l 215 418 l 78 486 l 215 574 l 428 574 l 564 486 m 604 155 l 534 87 l 447 175 l 447 399 l 604 476 l 604 155 m 515 68 l 447 0 l 39 0 l 215 155 l 428 155 l 515 68 m 564 1111 l 428 1043 l 215 1043 l 78 1111 l 215 1198 l 428 1198 l 564 1111 z "},"¦":{"ha":0,"x_min":0,"x_max":0,"o":""},"Ð":{"ha":0,"x_min":0,"x_max":0,"o":""},"ð":{"ha":0,"x_min":0,"x_max":0,"o":""},"Ý":{"ha":0,"x_min":0,"x_max":0,"o":""},"ý":{"ha":0,"x_min":0,"x_max":0,"o":""},"Þ":{"ha":0,"x_min":0,"x_max":0,"o":""},"þ":{"ha":0,"x_min":0,"x_max":0,"o":""},"−":{"ha":0,"x_min":0,"x_max":0,"o":""},"×":{"ha":0,"x_min":0,"x_max":0,"o":""},"¹":{"ha":0,"x_min":0,"x_max":0,"o":""},"²":{"ha":0,"x_min":0,"x_max":0,"o":""},"³":{"ha":0,"x_min":0,"x_max":0,"o":""},"½":{"ha":0,"x_min":0,"x_max":0,"o":""},"¼":{"ha":0,"x_min":0,"x_max":0,"o":""},"¾":{"ha":0,"x_min":0,"x_max":0,"o":""},"₣":{"ha":0,"x_min":0,"x_max":0,"o":""},"Ğ":{"ha":0,"x_min":0,"x_max":0,"o":""},"ğ":{"ha":772,"x_min":0,"x_max":0,"o":""},"İ":{"ha":386,"x_min":0,"x_max":0,"o":""},"Ş":{"ha":926,"x_min":0,"x_max":0,"o":""},"ş":{"ha":694,"x_min":0,"x_max":0,"o":""},"Ć":{"ha":1003,"x_min":0,"x_max":0,"o":""},"ć":{"ha":694,"x_min":0,"x_max":0,"o":""},"Č":{"ha":1003,"x_min":0,"x_max":0,"o":""},"č":{"ha":694,"x_min":0,"x_max":0,"o":""},"đ":{"ha":772,"x_min":0,"x_max":0,"o":""},"¯":{"ha":767,"x_min":0,"x_max":0,"o":""},"Ă":{"ha":926,"x_min":0,"x_max":0,"o":""},"ă":{"ha":772,"x_min":0,"x_max":0,"o":""},"Ą":{"ha":926,"x_min":0,"x_max":0,"o":""},"ą":{"ha":772,"x_min":0,"x_max":0,"o":""},"Ď":{"ha":1003,"x_min":0,"x_max":0,"o":""},"ď":{"ha":854,"x_min":0,"x_max":0,"o":""},"Đ":{"ha":1003,"x_min":0,"x_max":0,"o":""},"Ę":{"ha":926,"x_min":0,"x_max":0,"o":""},"ę":{"ha":772,"x_min":0,"x_max":0,"o":""},"Ě":{"ha":926,"x_min":0,"x_max":0,"o":""},"ě":{"ha":772,"x_min":0,"x_max":0,"o":""},"Ĺ":{"ha":772,"x_min":0,"x_max":0,"o":""},"ĺ":{"ha":309,"x_min":0,"x_max":0,"o":""},"Ľ":{"ha":772,"x_min":0,"x_max":0,"o":""},"ľ":{"ha":405,"x_min":0,"x_max":0,"o":""},"Ŀ":{"ha":772,"x_min":0,"x_max":0,"o":""},"ŀ":{"ha":464,"x_min":0,"x_max":0,"o":""},"Ń":{"ha":1003,"x_min":0,"x_max":0,"o":""},"ń":{"ha":772,"x_min":0,"x_max":0,"o":""},"Ň":{"ha":1003,"x_min":0,"x_max":0,"o":""},"ň":{"ha":772,"x_min":0,"x_max":0,"o":""},"Ő":{"ha":1080,"x_min":0,"x_max":0,"o":""},"ő":{"ha":772,"x_min":0,"x_max":0,"o":""},"Ŕ":{"ha":1003,"x_min":0,"x_max":0,"o":""},"ŕ":{"ha":463,"x_min":0,"x_max":0,"o":""},"Ř":{"ha":1003,"x_min":0,"x_max":0,"o":""},"ř":{"ha":463,"x_min":0,"x_max":0,"o":""},"Ś":{"ha":926,"x_min":0,"x_max":0,"o":""},"ś":{"ha":694,"x_min":0,"x_max":0,"o":""},"Ţ":{"ha":848,"x_min":0,"x_max":0,"o":""},"ţ":{"ha":386,"x_min":0,"x_max":0,"o":""},"Ť":{"ha":848,"x_min":0,"x_max":0,"o":""},"ť":{"ha":521,"x_min":0,"x_max":0,"o":""},"Ů":{"ha":1003,"x_min":0,"x_max":0,"o":""},"ů":{"ha":772,"x_min":0,"x_max":0,"o":""},"Ű":{"ha":1003,"x_min":0,"x_max":0,"o":""},"ű":{"ha":772,"x_min":0,"x_max":0,"o":""},"Ź":{"ha":848,"x_min":0,"x_max":0,"o":""},"ź":{"ha":694,"x_min":0,"x_max":0,"o":""},"Ż":{"ha":848,"x_min":0,"x_max":0,"o":""},"ż":{"ha":694,"x_min":0,"x_max":0,"o":""},"Γ":{"ha":765,"x_min":0,"x_max":0,"o":""},"Θ":{"ha":1080,"x_min":0,"x_max":0,"o":""},"Φ":{"ha":1108,"x_min":0,"x_max":0,"o":""},"α":{"ha":803,"x_min":0,"x_max":0,"o":""},"δ":{"ha":773,"x_min":0,"x_max":0,"o":""},"ε":{"ha":619,"x_min":0,"x_max":0,"o":""},"σ":{"ha":857,"x_min":0,"x_max":0,"o":""},"τ":{"ha":549,"x_min":0,"x_max":0,"o":""},"φ":{"ha":901,"x_min":0,"x_max":0,"o":""},"‗":{"ha":767,"x_min":0,"x_max":0,"o":""},"‼":{"ha":694,"x_min":0,"x_max":0,"o":""},"ⁿ":{"ha":507,"x_min":0,"x_max":0,"o":""},"₧":{"ha":1519,"x_min":0,"x_max":0,"o":""},"←":{"ha":1389,"x_min":0,"x_max":0,"o":""},"↑":{"ha":694,"x_min":0,"x_max":0,"o":""},"→":{"ha":1389,"x_min":0,"x_max":0,"o":""},"↓":{"ha":694,"x_min":0,"x_max":0,"o":""},"↔":{"ha":1389,"x_min":0,"x_max":0,"o":""},"↕":{"ha":694,"x_min":0,"x_max":0,"o":""},"↨":{"ha":694,"x_min":0,"x_max":0,"o":""},"∟":{"ha":1360,"x_min":0,"x_max":0,"o":""},"∩":{"ha":998,"x_min":0,"x_max":0,"o":""},"≡":{"ha":810,"x_min":0,"x_max":0,"o":""},"⌂":{"ha":839,"x_min":0,"x_max":0,"o":""},"⌐":{"ha":811,"x_min":0,"x_max":0,"o":""},"⌠":{"ha":839,"x_min":0,"x_max":0,"o":""},"⌡":{"ha":839,"x_min":0,"x_max":0,"o":""},"─":{"ha":984,"x_min":0,"x_max":0,"o":""},"│":{"ha":868,"x_min":0,"x_max":0,"o":""},"┌":{"ha":984,"x_min":0,"x_max":0,"o":""},"┐":{"ha":984,"x_min":0,"x_max":0,"o":""},"└":{"ha":984,"x_min":0,"x_max":0,"o":""},"┘":{"ha":984,"x_min":0,"x_max":0,"o":""},"├":{"ha":984,"x_min":0,"x_max":0,"o":""},"┤":{"ha":984,"x_min":0,"x_max":0,"o":""},"┬":{"ha":984,"x_min":0,"x_max":0,"o":""},"┴":{"ha":984,"x_min":0,"x_max":0,"o":""},"┼":{"ha":984,"x_min":0,"x_max":0,"o":""},"═":{"ha":984,"x_min":0,"x_max":0,"o":""},"║":{"ha":984,"x_min":0,"x_max":0,"o":""},"╒":{"ha":984,"x_min":0,"x_max":0,"o":""},"╓":{"ha":984,"x_min":0,"x_max":0,"o":""},"╔":{"ha":984,"x_min":0,"x_max":0,"o":""},"╕":{"ha":984,"x_min":0,"x_max":0,"o":""},"╖":{"ha":984,"x_min":0,"x_max":0,"o":""},"╗":{"ha":984,"x_min":0,"x_max":0,"o":""},"╘":{"ha":984,"x_min":0,"x_max":0,"o":""},"╙":{"ha":984,"x_min":0,"x_max":0,"o":""},"╚":{"ha":984,"x_min":0,"x_max":0,"o":""},"╛":{"ha":984,"x_min":0,"x_max":0,"o":""},"╜":{"ha":984,"x_min":0,"x_max":0,"o":""},"╝":{"ha":984,"x_min":0,"x_max":0,"o":""},"╞":{"ha":984,"x_min":0,"x_max":0,"o":""},"╟":{"ha":984,"x_min":0,"x_max":0,"o":""},"╠":{"ha":984,"x_min":0,"x_max":0,"o":""},"╡":{"ha":984,"x_min":0,"x_max":0,"o":""},"╢":{"ha":984,"x_min":0,"x_max":0,"o":""},"╣":{"ha":984,"x_min":0,"x_max":0,"o":""},"╤":{"ha":984,"x_min":0,"x_max":0,"o":""},"╥":{"ha":984,"x_min":0,"x_max":0,"o":""},"╦":{"ha":984,"x_min":0,"x_max":0,"o":""},"╧":{"ha":984,"x_min":0,"x_max":0,"o":""},"╨":{"ha":984,"x_min":0,"x_max":0,"o":""},"╩":{"ha":984,"x_min":0,"x_max":0,"o":""},"╪":{"ha":984,"x_min":0,"x_max":0,"o":""},"╫":{"ha":984,"x_min":0,"x_max":0,"o":""},"╬":{"ha":984,"x_min":0,"x_max":0,"o":""},"▀":{"ha":984,"x_min":0,"x_max":0,"o":""},"▄":{"ha":984,"x_min":0,"x_max":0,"o":""},"█":{"ha":984,"x_min":0,"x_max":0,"o":""},"▌":{"ha":984,"x_min":0,"x_max":0,"o":""},"▐":{"ha":984,"x_min":0,"x_max":0,"o":""},"░":{"ha":984,"x_min":0,"x_max":0,"o":""},"▒":{"ha":984,"x_min":0,"x_max":0,"o":""},"▓":{"ha":1013,"x_min":0,"x_max":0,"o":""},"■":{"ha":839,"x_min":0,"x_max":0,"o":""},"▬":{"ha":1389,"x_min":0,"x_max":0,"o":""},"▲":{"ha":1375,"x_min":0,"x_max":0,"o":""},"►":{"ha":1375,"x_min":0,"x_max":0,"o":""},"▼":{"ha":1375,"x_min":0,"x_max":0,"o":""},"◄":{"ha":1375,"x_min":0,"x_max":0,"o":""},"○":{"ha":839,"x_min":0,"x_max":0,"o":""},"◘":{"ha":839,"x_min":0,"x_max":0,"o":""},"◙":{"ha":839,"x_min":0,"x_max":0,"o":""},"☺":{"ha":1418,"x_min":0,"x_max":0,"o":""},"☻":{"ha":1461,"x_min":0,"x_max":0,"o":""},"☼":{"ha":1273,"x_min":0,"x_max":0,"o":""},"♀":{"ha":1042,"x_min":0,"x_max":0,"o":""},"♂":{"ha":1042,"x_min":0,"x_max":0,"o":""},"♠":{"ha":738,"x_min":0,"x_max":0,"o":""},"♣":{"ha":911,"x_min":0,"x_max":0,"o":""},"♥":{"ha":825,"x_min":0,"x_max":0,"o":""},"♦":{"ha":709,"x_min":0,"x_max":0,"o":""},"♪":{"ha":694,"x_min":0,"x_max":0,"o":""},"♫":{"ha":1042,"x_min":0,"x_max":0,"o":""},"Ĳ":{"ha":1021,"x_min":0,"x_max":0,"o":""},"ĳ":{"ha":616,"x_min":0,"x_max":0,"o":""},"ŉ":{"ha":839,"x_min":0,"x_max":0,"o":""},"′":{"ha":260,"x_min":0,"x_max":0,"o":""},"″":{"ha":492,"x_min":0,"x_max":0,"o":""},"℅":{"ha":1230,"x_min":0,"x_max":0,"o":""},"ℓ":{"ha":449,"x_min":0,"x_max":0,"o":""},"□":{"ha":839,"x_min":0,"x_max":0,"o":""},"▪":{"ha":492,"x_min":0,"x_max":0,"o":""},"▫":{"ha":492,"x_min":0,"x_max":0,"o":""},"●":{"ha":839,"x_min":0,"x_max":0,"o":""},"◦":{"ha":492,"x_min":0,"x_max":0,"o":""},"Ā":{"ha":926,"x_min":0,"x_max":0,"o":""},"ā":{"ha":772,"x_min":0,"x_max":0,"o":""},"Ĉ":{"ha":1003,"x_min":0,"x_max":0,"o":""},"ĉ":{"ha":694,"x_min":0,"x_max":0,"o":""},"Ċ":{"ha":1003,"x_min":0,"x_max":0,"o":""},"ċ":{"ha":694,"x_min":0,"x_max":0,"o":""},"Ē":{"ha":926,"x_min":0,"x_max":0,"o":""},"ē":{"ha":772,"x_min":0,"x_max":0,"o":""},"Ĕ":{"ha":926,"x_min":0,"x_max":0,"o":""},"ĕ":{"ha":772,"x_min":0,"x_max":0,"o":""},"Ė":{"ha":926,"x_min":0,"x_max":0,"o":""},"ė":{"ha":772,"x_min":0,"x_max":0,"o":""},"Ĝ":{"ha":1080,"x_min":0,"x_max":0,"o":""},"ĝ":{"ha":772,"x_min":0,"x_max":0,"o":""},"Ġ":{"ha":1080,"x_min":0,"x_max":0,"o":""},"ġ":{"ha":772,"x_min":0,"x_max":0,"o":""},"Ģ":{"ha":1080,"x_min":0,"x_max":0,"o":""},"ģ":{"ha":772,"x_min":0,"x_max":0,"o":""},"Ĥ":{"ha":1003,"x_min":0,"x_max":0,"o":""},"ĥ":{"ha":772,"x_min":0,"x_max":0,"o":""},"Ħ":{"ha":1003,"x_min":0,"x_max":0,"o":""},"ħ":{"ha":772,"x_min":0,"x_max":0,"o":""},"Ĩ":{"ha":386,"x_min":0,"x_max":0,"o":""},"ĩ":{"ha":386,"x_min":0,"x_max":0,"o":""},"Ī":{"ha":386,"x_min":0,"x_max":0,"o":""},"ī":{"ha":386,"x_min":0,"x_max":0,"o":""},"Ĭ":{"ha":386,"x_min":0,"x_max":0,"o":""},"ĭ":{"ha":386,"x_min":0,"x_max":0,"o":""},"Į":{"ha":386,"x_min":0,"x_max":0,"o":""},"į":{"ha":309,"x_min":0,"x_max":0,"o":""},"Ĵ":{"ha":694,"x_min":0,"x_max":0,"o":""},"ĵ":{"ha":309,"x_min":0,"x_max":0,"o":""},"Ķ":{"ha":926,"x_min":0,"x_max":0,"o":""},"ķ":{"ha":694,"x_min":0,"x_max":0,"o":""},"ĸ":{"ha":694,"x_min":0,"x_max":0,"o":""},"Ļ":{"ha":772,"x_min":0,"x_max":0,"o":""},"ļ":{"ha":309,"x_min":0,"x_max":0,"o":""},"Ņ":{"ha":1003,"x_min":0,"x_max":0,"o":""},"ņ":{"ha":772,"x_min":0,"x_max":0,"o":""},"Ŋ":{"ha":1004,"x_min":0,"x_max":0,"o":""},"ŋ":{"ha":772,"x_min":0,"x_max":0,"o":""},"Ō":{"ha":1080,"x_min":0,"x_max":0,"o":""},"ō":{"ha":772,"x_min":0,"x_max":0,"o":""},"Ŏ":{"ha":1080,"x_min":0,"x_max":0,"o":""},"ŏ":{"ha":772,"x_min":0,"x_max":0,"o":""},"Ŗ":{"ha":1003,"x_min":0,"x_max":0,"o":""},"ŗ":{"ha":463,"x_min":0,"x_max":0,"o":""},"Ŝ":{"ha":926,"x_min":0,"x_max":0,"o":""},"ŝ":{"ha":694,"x_min":0,"x_max":0,"o":""},"Ŧ":{"ha":848,"x_min":0,"x_max":0,"o":""},"ŧ":{"ha":386,"x_min":0,"x_max":0,"o":""},"Ũ":{"ha":1003,"x_min":0,"x_max":0,"o":""},"ũ":{"ha":772,"x_min":0,"x_max":0,"o":""},"Ū":{"ha":1003,"x_min":0,"x_max":0,"o":""},"ū":{"ha":772,"x_min":0,"x_max":0,"o":""},"Ŭ":{"ha":1003,"x_min":0,"x_max":0,"o":""},"ŭ":{"ha":772,"x_min":0,"x_max":0,"o":""},"Ų":{"ha":1003,"x_min":0,"x_max":0,"o":""},"ų":{"ha":772,"x_min":0,"x_max":0,"o":""},"Ŵ":{"ha":1311,"x_min":0,"x_max":0,"o":""},"ŵ":{"ha":1003,"x_min":0,"x_max":0,"o":""},"Ŷ":{"ha":926,"x_min":0,"x_max":0,"o":""},"ŷ":{"ha":694,"x_min":0,"x_max":0,"o":""},"ſ":{"ha":309,"x_min":0,"x_max":0,"o":""},"Ǻ":{"ha":926,"x_min":0,"x_max":0,"o":""},"ǻ":{"ha":772,"x_min":0,"x_max":0,"o":""},"Ǽ":{"ha":1389,"x_min":0,"x_max":0,"o":""},"ǽ":{"ha":1235,"x_min":0,"x_max":0,"o":""},"Ǿ":{"ha":1080,"x_min":0,"x_max":0,"o":""},"ǿ":{"ha":848,"x_min":0,"x_max":0,"o":""},"·":{"ha":386,"x_min":0,"x_max":0,"o":""},"Ẁ":{"ha":1311,"x_min":0,"x_max":0,"o":""},"ẁ":{"ha":1003,"x_min":0,"x_max":0,"o":""},"Ẃ":{"ha":1311,"x_min":0,"x_max":0,"o":""},"ẃ":{"ha":1003,"x_min":0,"x_max":0,"o":""},"Ẅ":{"ha":1311,"x_min":0,"x_max":0,"o":""},"ẅ":{"ha":1003,"x_min":0,"x_max":0,"o":""},"Ỳ":{"ha":926,"x_min":0,"x_max":0,"o":""},"ỳ":{"ha":694,"x_min":0,"x_max":0,"o":""},"‛":{"ha":309,"x_min":0,"x_max":0,"o":""},"‾":{"ha":463,"x_min":0,"x_max":0,"o":""},"₤":{"ha":772,"x_min":0,"x_max":0,"o":""},"℮":{"ha":833,"x_min":0,"x_max":0,"o":""},"⅛":{"ha":1158,"x_min":0,"x_max":0,"o":""},"⅜":{"ha":1158,"x_min":0,"x_max":0,"o":""},"⅝":{"ha":1158,"x_min":0,"x_max":0,"o":""},"⅞":{"ha":1158,"x_min":0,"x_max":0,"o":""},"":{"ha":463,"x_min":0,"x_max":0,"o":""},"":{"ha":463,"x_min":0,"x_max":0,"o":""},"΄":{"ha":463,"x_min":0,"x_max":0,"o":""},"΅":{"ha":463,"x_min":0,"x_max":0,"o":""},"Ά":{"ha":927,"x_min":0,"x_max":0,"o":""},"Έ":{"ha":1089,"x_min":0,"x_max":0,"o":""},"Ή":{"ha":1164,"x_min":0,"x_max":0,"o":""},"Ί":{"ha":533,"x_min":0,"x_max":0,"o":""},"Ό":{"ha":1076,"x_min":0,"x_max":0,"o":""},"Ύ":{"ha":1188,"x_min":0,"x_max":0,"o":""},"Ώ":{"ha":1045,"x_min":0,"x_max":0,"o":""},"ΐ":{"ha":309,"x_min":0,"x_max":0,"o":""},"Α":{"ha":926,"x_min":0,"x_max":0,"o":""},"Β":{"ha":926,"x_min":0,"x_max":0,"o":""},"Δ":{"ha":928,"x_min":0,"x_max":0,"o":""},"Ε":{"ha":926,"x_min":0,"x_max":0,"o":""},"Ζ":{"ha":848,"x_min":0,"x_max":0,"o":""},"Η":{"ha":1003,"x_min":0,"x_max":0,"o":""},"Ι":{"ha":386,"x_min":0,"x_max":0,"o":""},"Κ":{"ha":926,"x_min":0,"x_max":0,"o":""},"Λ":{"ha":928,"x_min":0,"x_max":0,"o":""},"Μ":{"ha":1157,"x_min":0,"x_max":0,"o":""},"Ν":{"ha":1003,"x_min":0,"x_max":0,"o":""},"Ξ":{"ha":903,"x_min":0,"x_max":0,"o":""},"Ο":{"ha":1080,"x_min":0,"x_max":0,"o":""},"Π":{"ha":1003,"x_min":0,"x_max":0,"o":""},"Ρ":{"ha":926,"x_min":0,"x_max":0,"o":""},"Σ":{"ha":859,"x_min":0,"x_max":0,"o":""},"Τ":{"ha":848,"x_min":0,"x_max":0,"o":""},"Υ":{"ha":926,"x_min":0,"x_max":0,"o":""},"Χ":{"ha":926,"x_min":0,"x_max":0,"o":""},"Ψ":{"ha":1160,"x_min":0,"x_max":0,"o":""},"Ω":{"ha":1038,"x_min":0,"x_max":0,"o":""},"Ϊ":{"ha":386,"x_min":0,"x_max":0,"o":""},"Ϋ":{"ha":926,"x_min":0,"x_max":0,"o":""},"ά":{"ha":803,"x_min":0,"x_max":0,"o":""},"έ":{"ha":619,"x_min":0,"x_max":0,"o":""},"ή":{"ha":772,"x_min":0,"x_max":0,"o":""},"ί":{"ha":309,"x_min":0,"x_max":0,"o":""},"ΰ":{"ha":760,"x_min":0,"x_max":0,"o":""},"β":{"ha":799,"x_min":0,"x_max":0,"o":""},"γ":{"ha":694,"x_min":0,"x_max":0,"o":""},"ζ":{"ha":612,"x_min":0,"x_max":0,"o":""},"η":{"ha":772,"x_min":0,"x_max":0,"o":""},"θ":{"ha":772,"x_min":0,"x_max":0,"o":""},"ι":{"ha":309,"x_min":0,"x_max":0,"o":""},"κ":{"ha":694,"x_min":0,"x_max":0,"o":""},"λ":{"ha":694,"x_min":0,"x_max":0,"o":""},"μ":{"ha":800,"x_min":0,"x_max":0,"o":""},"ν":{"ha":694,"x_min":0,"x_max":0,"o":""},"ξ":{"ha":622,"x_min":0,"x_max":0,"o":""},"ο":{"ha":772,"x_min":0,"x_max":0,"o":""},"ρ":{"ha":790,"x_min":0,"x_max":0,"o":""},"ς":{"ha":669,"x_min":0,"x_max":0,"o":""},"υ":{"ha":760,"x_min":0,"x_max":0,"o":""},"χ":{"ha":729,"x_min":0,"x_max":0,"o":""},"ψ":{"ha":990,"x_min":0,"x_max":0,"o":""},"ω":{"ha":1084,"x_min":0,"x_max":0,"o":""},"ϊ":{"ha":309,"x_min":0,"x_max":0,"o":""},"ϋ":{"ha":760,"x_min":0,"x_max":0,"o":""},"ό":{"ha":772,"x_min":0,"x_max":0,"o":""},"ύ":{"ha":760,"x_min":0,"x_max":0,"o":""},"ώ":{"ha":1084,"x_min":0,"x_max":0,"o":""},"Ё":{"ha":927,"x_min":0,"x_max":0,"o":""},"Ђ":{"ha":1201,"x_min":0,"x_max":0,"o":""},"Ѓ":{"ha":752,"x_min":0,"x_max":0,"o":""},"Є":{"ha":998,"x_min":0,"x_max":0,"o":""},"Ѕ":{"ha":926,"x_min":0,"x_max":0,"o":""},"І":{"ha":386,"x_min":0,"x_max":0,"o":""},"Ї":{"ha":386,"x_min":0,"x_max":0,"o":""},"Ј":{"ha":694,"x_min":0,"x_max":0,"o":""},"Љ":{"ha":1468,"x_min":0,"x_max":0,"o":""},"Њ":{"ha":1403,"x_min":0,"x_max":0,"o":""},"Ћ":{"ha":1186,"x_min":0,"x_max":0,"o":""},"Ќ":{"ha":809,"x_min":0,"x_max":0,"o":""},"Ў":{"ha":882,"x_min":0,"x_max":0,"o":""},"Џ":{"ha":998,"x_min":0,"x_max":0,"o":""},"А":{"ha":926,"x_min":0,"x_max":0,"o":""},"Б":{"ha":911,"x_min":0,"x_max":0,"o":""},"В":{"ha":926,"x_min":0,"x_max":0,"o":""},"Г":{"ha":752,"x_min":0,"x_max":0,"o":""},"Д":{"ha":941,"x_min":0,"x_max":0,"o":""},"Е":{"ha":926,"x_min":0,"x_max":0,"o":""},"Ж":{"ha":1282,"x_min":0,"x_max":0,"o":""},"З":{"ha":839,"x_min":0,"x_max":0,"o":""},"И":{"ha":998,"x_min":0,"x_max":0,"o":""},"Й":{"ha":998,"x_min":0,"x_max":0,"o":""},"К":{"ha":809,"x_min":0,"x_max":0,"o":""},"Л":{"ha":911,"x_min":0,"x_max":0,"o":""},"М":{"ha":1157,"x_min":0,"x_max":0,"o":""},"Н":{"ha":1003,"x_min":0,"x_max":0,"o":""},"О":{"ha":1080,"x_min":0,"x_max":0,"o":""},"П":{"ha":998,"x_min":0,"x_max":0,"o":""},"Р":{"ha":926,"x_min":0,"x_max":0,"o":""},"С":{"ha":1003,"x_min":0,"x_max":0,"o":""},"Т":{"ha":848,"x_min":0,"x_max":0,"o":""},"У":{"ha":882,"x_min":0,"x_max":0,"o":""},"Ф":{"ha":1056,"x_min":0,"x_max":0,"o":""},"Х":{"ha":926,"x_min":0,"x_max":0,"o":""},"Ц":{"ha":1027,"x_min":0,"x_max":0,"o":""},"Ч":{"ha":926,"x_min":0,"x_max":0,"o":""},"Ш":{"ha":1273,"x_min":0,"x_max":0,"o":""},"Щ":{"ha":1302,"x_min":0,"x_max":0,"o":""},"Ъ":{"ha":1099,"x_min":0,"x_max":0,"o":""},"Ы":{"ha":1230,"x_min":0,"x_max":0,"o":""},"Ь":{"ha":911,"x_min":0,"x_max":0,"o":""},"Э":{"ha":998,"x_min":0,"x_max":0,"o":""},"Ю":{"ha":1403,"x_min":0,"x_max":0,"o":""},"Я":{"ha":1003,"x_min":0,"x_max":0,"o":""},"а":{"ha":772,"x_min":0,"x_max":0,"o":""},"б":{"ha":795,"x_min":0,"x_max":0,"o":""},"в":{"ha":738,"x_min":0,"x_max":0,"o":""},"г":{"ha":507,"x_min":0,"x_max":0,"o":""},"д":{"ha":810,"x_min":0,"x_max":0,"o":""},"е":{"ha":772,"x_min":0,"x_max":0,"o":""},"ж":{"ha":929,"x_min":0,"x_max":0,"o":""},"з":{"ha":637,"x_min":0,"x_max":0,"o":""},"и":{"ha":776,"x_min":0,"x_max":0,"o":""},"й":{"ha":776,"x_min":0,"x_max":0,"o":""},"к":{"ha":608,"x_min":0,"x_max":0,"o":""},"л":{"ha":810,"x_min":0,"x_max":0,"o":""},"м":{"ha":955,"x_min":0,"x_max":0,"o":""},"н":{"ha":767,"x_min":0,"x_max":0,"o":""},"о":{"ha":772,"x_min":0,"x_max":0,"o":""},"п":{"ha":752,"x_min":0,"x_max":0,"o":""},"р":{"ha":772,"x_min":0,"x_max":0,"o":""},"с":{"ha":694,"x_min":0,"x_max":0,"o":""},"т":{"ha":636,"x_min":0,"x_max":0,"o":""},"у":{"ha":694,"x_min":0,"x_max":0,"o":""},"ф":{"ha":1143,"x_min":0,"x_max":0,"o":""},"х":{"ha":694,"x_min":0,"x_max":0,"o":""},"ц":{"ha":795,"x_min":0,"x_max":0,"o":""},"ч":{"ha":724,"x_min":0,"x_max":0,"o":""},"ш":{"ha":1114,"x_min":0,"x_max":0,"o":""},"щ":{"ha":1143,"x_min":0,"x_max":0,"o":""},"ъ":{"ha":868,"x_min":0,"x_max":0,"o":""},"ы":{"ha":998,"x_min":0,"x_max":0,"o":""},"ь":{"ha":724,"x_min":0,"x_max":0,"o":""},"э":{"ha":709,"x_min":0,"x_max":0,"o":""},"ю":{"ha":1042,"x_min":0,"x_max":0,"o":""},"я":{"ha":752,"x_min":0,"x_max":0,"o":""},"ё":{"ha":772,"x_min":0,"x_max":0,"o":""},"ђ":{"ha":772,"x_min":0,"x_max":0,"o":""},"ѓ":{"ha":507,"x_min":0,"x_max":0,"o":""},"є":{"ha":709,"x_min":0,"x_max":0,"o":""},"ѕ":{"ha":694,"x_min":0,"x_max":0,"o":""},"і":{"ha":309,"x_min":0,"x_max":0,"o":""},"ї":{"ha":386,"x_min":0,"x_max":0,"o":""},"ј":{"ha":309,"x_min":0,"x_max":0,"o":""},"љ":{"ha":1259,"x_min":0,"x_max":0,"o":""},"њ":{"ha":1128,"x_min":0,"x_max":0,"o":""},"ћ":{"ha":772,"x_min":0,"x_max":0,"o":""},"ќ":{"ha":608,"x_min":0,"x_max":0,"o":""},"ў":{"ha":694,"x_min":0,"x_max":0,"o":""},"џ":{"ha":767,"x_min":0,"x_max":0,"o":""},"Ґ":{"ha":679,"x_min":0,"x_max":0,"o":""},"ґ":{"ha":571,"x_min":0,"x_max":0,"o":""},"―":{"ha":1389,"x_min":0,"x_max":0,"o":""},"№":{"ha":1490,"x_min":0,"x_max":0,"o":""},"π":{"ha":958,"x_min":0,"x_max":0,"o":""}}}
